<?xml version="1.0" encoding="UTF-8" standalone="no"?>
<svg
   xmlns:dc="http://purl.org/dc/elements/1.1/"
   xmlns:cc="http://creativecommons.org/ns#"
   xmlns:rdf="http://www.w3.org/1999/02/22-rdf-syntax-ns#"
   xmlns:svg="http://www.w3.org/2000/svg"
   xmlns="http://www.w3.org/2000/svg"
   xmlns:sodipodi="http://sodipodi.sourceforge.net/DTD/sodipodi-0.dtd"
   xmlns:inkscape="http://www.inkscape.org/namespaces/inkscape"
   width="809mm"
   height="540mm"
   viewBox="0 0 809 540"
   version="1.1"
   id="svg8"
   inkscape:version="1.0.1 (3bc2e813f5, 2020-09-07)"
   sodipodi:docname="pimlogo.svg"
   inkscape:export-filename="C:\SQL2XProjects\SolutionNorSolutionPim\WinForm\Main\bitmap.png"
   inkscape:export-xdpi="96"
   inkscape:export-ydpi="96">
  <defs
     id="defs2" />
  <sodipodi:namedview
     id="base"
     pagecolor="#ffffff"
     bordercolor="#666666"
     borderopacity="1.0"
     inkscape:pageopacity="0.0"
     inkscape:pageshadow="2"
     inkscape:zoom="0.35"
     inkscape:cx="931.03056"
     inkscape:cy="1017.1429"
     inkscape:document-units="mm"
     inkscape:current-layer="layer1"
     inkscape:document-rotation="0"
     showgrid="false"
     inkscape:window-width="1920"
     inkscape:window-height="1057"
     inkscape:window-x="-8"
     inkscape:window-y="-8"
     inkscape:window-maximized="1" />
  <metadata
     id="metadata5">
    <rdf:RDF>
      <cc:Work
         rdf:about="">
        <dc:format>image/svg+xml</dc:format>
        <dc:type
           rdf:resource="http://purl.org/dc/dcmitype/StillImage" />
        <dc:title></dc:title>
      </cc:Work>
    </rdf:RDF>
  </metadata>
  <g
     inkscape:label="Layer 1"
     inkscape:groupmode="layer"
     id="layer1">
    <path
       style="fill:#a05a2c;stroke:#000000;stroke-width:0.264583px;stroke-linecap:butt;stroke-linejoin:miter;stroke-opacity:1"
       d="m 1.5119047,101.29762 c 9.5439783,12.66952 21.7430123,22.68607 34.0178563,32.50595 7.392794,5.91423 13.569899,13.20123 21.166666,18.89881 10.588652,7.94149 23.291858,12.66415 34.017857,20.41071 4.343017,3.13662 7.997409,7.13253 12.095236,10.58333 6.87192,5.78688 10.06134,8.25385 17.3869,13.60715 9.61684,7.02768 19.51195,13.89173 29.48215,20.41071 5.42391,4.5814 12.27262,6.76768 18.14285,10.58333 7.05791,4.58764 13.00386,10.78901 19.65477,15.875 12.24189,9.36145 24.88372,18.06431 37.79761,26.45834 24.14154,15.69198 -8.15861,-4.77237 14.3631,10.58333 13.44073,9.16413 28.87424,14.98161 42.33333,24.19048 7.15957,4.89863 14.07715,10.11468 21.16666,15.11904 8.7843,6.20069 18.29896,11.44336 27.2143,17.3869 9.08977,6.05986 18.068,13.4188 26.45834,20.41073 2.331,1.94249 4.37613,4.22704 6.80355,6.04761 2.62839,1.97127 5.58181,3.46921 8.31548,5.29166 8.48482,5.65656 16.9263,11.84135 24.94642,18.14285 2.69164,2.11487 8.88609,7.80712 11.33931,9.8274 9.26134,7.62698 18.97581,14.95805 28.72618,21.9226 11.23778,8.02701 23.59236,14.34531 35.52976,21.16667 4.1281,2.35892 7.4141,5.6987 11.3393,8.31548 4.63579,3.09055 9.88546,4.95726 14.36309,8.31549 2.91557,2.1867 5.76604,5.15088 9.07142,6.80357 8.75919,4.3796 17.02446,9.62967 25.70237,14.36309 6.37699,3.47835 13.50015,5.98072 19.65478,9.82737 2.1368,1.33554 3.95097,3.13796 6.04761,4.53572 7.96883,5.31255 16.73775,9.4379 24.94642,14.3631 0.0154,0.009 15.93766,9.85871 17.38691,10.58333 3.1392,1.56961 6.62014,2.35431 9.82739,3.77976 1.00793,0.50397 2.01586,1.00795 3.0238,1.5119 0.50397,0.50398 0.87444,1.19317 1.5119,1.51191 0.92927,0.46464 2.06886,0.34669 3.02382,0.75594 0.90546,0.38807 4.88408,3.49446 5.29167,3.77979 3.51951,2.46364 7.30829,4.53599 11.33927,6.04761 2.07971,0.77988 4.06958,0.52289 6.04764,1.51191 1.02452,0.51225 3.36211,2.73042 4.53569,3.02381 3.19588,0.79896 7.20223,-1.11326 9.8274,1.51188"
       id="path72" />
    <path
       style="fill:#ac9d93;stroke:#000000;stroke-width:0.265792px;stroke-linecap:butt;stroke-linejoin:miter;stroke-opacity:1"
       d="m 145.14296,0.75632563 c 1.78005,0.75595107 3.74183,1.18419637 5.34015,2.26785317 8.65316,5.8668137 15.88034,13.6159232 24.41215,19.6547282 18.56559,13.140701 39.39402,23.161283 55.69021,39.309456 8.67694,8.598146 16.16069,18.25903 24.41214,27.214237 8.13659,8.83058 17.42709,16.51289 25.93788,24.94639 2.92713,2.90054 5.40775,6.22828 8.39169,9.07141 3.63846,3.46674 7.7342,6.43479 11.44318,9.82736 10.18576,9.31686 19.21479,19.79623 28.98944,29.48209 2.16522,2.14557 4.70067,3.90205 6.86589,6.04761 8.62022,8.54193 16.38421,18.08233 25.17505,26.45829 3.12153,2.97422 6.73537,5.40488 9.91742,8.31546 3.43529,3.14225 6.48215,6.68512 9.91744,9.82736 3.01633,2.75904 14.62813,12.16625 18.3091,15.11903 22.5059,18.05361 47.62194,33.00327 72.47355,47.62491 23.36762,13.74853 45.84604,28.9002 69.42204,42.33326 13.95105,7.949 28.53013,14.45203 42.72125,21.92257 12.29697,6.47345 23.82486,14.26489 35.85533,21.16664 23.87386,13.69618 -13.64546,-9.02006 12.96894,6.80355 2.17916,1.29564 8.77102,6.04678 10.68031,6.80357 1.66952,0.66175 3.62156,0.23196 5.34016,0.75594 6.32782,1.92934 11.51898,7.17292 17.54623,9.82737 2.20452,0.97089 4.64252,1.3402 6.86592,2.26785 2.62028,1.09326 4.98904,2.73346 7.62879,3.77975 7.86997,3.11941 16.38666,4.90866 24.41214,7.55953 10.55886,3.48765 20.88944,8.13588 31.27804,12.09522 0.64638,0.24633 7.75109,3.36253 9.15459,3.77975 7.64377,2.2723 -0.30792,-1.24835 9.15454,2.26785 2.34503,0.87141 4.47767,2.27648 6.86593,3.02381 9.19914,2.87861 18.88813,2.68499 28.22651,4.5357 4.82616,0.95646 9.67148,2.6768 14.49474,3.77975 6.36151,1.45473 2.74403,-0.15232 6.10302,1.5119"
       id="path74" />
  </g>
</svg>
