<?xml version="1.0" encoding="UTF-8" standalone="no"?>
<svg
   xmlns:dc="http://purl.org/dc/elements/1.1/"
   xmlns:cc="http://creativecommons.org/ns#"
   xmlns:rdf="http://www.w3.org/1999/02/22-rdf-syntax-ns#"
   xmlns:svg="http://www.w3.org/2000/svg"
   xmlns="http://www.w3.org/2000/svg"
   xmlns:sodipodi="http://sodipodi.sourceforge.net/DTD/sodipodi-0.dtd"
   xmlns:inkscape="http://www.inkscape.org/namespaces/inkscape"
   width="210mm"
   height="297mm"
   viewBox="0 0 210 297"
   version="1.1"
   id="svg8"
   sodipodi:docname="Catalog.svg"
   inkscape:version="1.0.1 (3bc2e813f5, 2020-09-07)">
  <defs
     id="defs2">
    <rect
       x="85.195833"
       y="108.47917"
       width="75.670833"
       height="100.54167"
       id="rect40" />
    <rect
       x="39.309524"
       y="97.517857"
       width="100.54167"
       height="89.958333"
       id="rect16" />
  </defs>
  <sodipodi:namedview
     id="base"
     pagecolor="#ffffff"
     bordercolor="#666666"
     borderopacity="1.0"
     inkscape:pageopacity="0.0"
     inkscape:pageshadow="2"
     inkscape:zoom="0.5"
     inkscape:cx="359.91343"
     inkscape:cy="560"
     inkscape:document-units="mm"
     inkscape:current-layer="layer1"
     inkscape:document-rotation="0"
     showgrid="false"
     inkscape:window-width="1600"
     inkscape:window-height="877"
     inkscape:window-x="-8"
     inkscape:window-y="-8"
     inkscape:window-maximized="1" />
  <metadata
     id="metadata5">
    <rdf:RDF>
      <cc:Work
         rdf:about="">
        <dc:format>image/svg+xml</dc:format>
        <dc:type
           rdf:resource="http://purl.org/dc/dcmitype/StillImage" />
      </cc:Work>
    </rdf:RDF>
  </metadata>
  <g
     inkscape:label="Layer 1"
     inkscape:groupmode="layer"
     id="layer1">
    <text
       xml:space="preserve"
       id="text14"
       style="font-style:normal;font-weight:normal;font-size:10.5833px;line-height:1.25;font-family:sans-serif;white-space:pre;shape-inside:url(#rect16);fill:#000000;fill-opacity:1;stroke:none;"
       transform="translate(2.1166667,26.9875)" />
    <ellipse
       style="fill:#800000;stroke:#00ffff;stroke-width:0.264583"
       id="path11"
       cx="43.622139"
       cy="61.506359"
       rx="22.754166"
       ry="13.758333" />
    <text
       xml:space="preserve"
       style="font-size:16.1235px;line-height:1.25;font-family:'Arial Rounded MT Bold';-inkscape-font-specification:'Arial Rounded MT Bold, Normal';fill:#ffe6d5;stroke-width:1.00772"
       x="30.994169"
       y="69.763496"
       id="text15"
       transform="scale(1.0540301,0.94873952)"><tspan
         sodipodi:role="line"
         id="tspan13"
         x="30.994169"
         y="69.763496"
         style="fill:#ffe6d5;stroke-width:1.00772">10</tspan></text>
    <ellipse
       style="fill:#800000;stroke:#00ffff;stroke-width:0.264583"
       id="path11-5"
       cx="43.622139"
       cy="92.784897"
       rx="22.754168"
       ry="13.758333" />
    <text
       xml:space="preserve"
       style="font-size:16.1235px;line-height:1.25;font-family:'Arial Rounded MT Bold';-inkscape-font-specification:'Arial Rounded MT Bold, Normal';fill:#ffe6d5;stroke-width:1.00772"
       x="31.127502"
       y="102.83112"
       id="text15-5"
       transform="scale(1.0540301,0.94873952)"><tspan
         sodipodi:role="line"
         id="tspan13-2"
         x="31.127502"
         y="102.83112"
         style="fill:#ffe6d5;stroke-width:1.00772">20</tspan></text>
    <text
       xml:space="preserve"
       id="text38"
       style="font-size:4.23333px;line-height:1.25;font-family:'Arial Rounded MT Bold';-inkscape-font-specification:'Arial Rounded MT Bold, Normal';white-space:pre;shape-inside:url(#rect40);"
       transform="translate(2.1166667,26.9875)" />
    <path
       style="fill:#ffd5d5;stroke:#00ffff;stroke-width:0.264583"
       id="path46"
       d="m 77.961161,61.745434 c 3.131347,-3.332798 6.706484,-6.237428 10.403581,-8.91813 4.59954,-2.885763 -2.54268,1.339204 -3.754998,2.107673 -0.100971,0.06401 0.766198,-0.446228 1.197157,-0.107201 0.400394,0.314983 0.405453,0.990388 0.480605,1.399862 0.06947,1.792486 -0.588259,3.631375 0.210323,5.321086 0.233621,0.16696 0.429492,0.407011 0.700865,0.50088 1.736889,0.6008 3.964554,0.06938 5.673196,-0.251674 0.768503,-0.144405 4.429786,-0.944798 5.222314,-1.116867 4.258816,-0.883772 8.491726,-1.824183 12.669466,-3.036864 1.93736,-0.564467 4.05209,-1.230156 5.98044,-0.33247 0.99436,0.799288 1.41701,2.092476 1.92555,3.225099 0.18427,0.333983 0.38395,0.790837 0.72467,1.010748 1.18475,0.764683 2.92627,0.760372 4.25885,0.97301 0.81174,0.129527 1.62188,0.268859 2.43282,0.403289 4.37402,0.858954 8.74434,1.718725 13.20787,1.930209 3.66858,0.173818 4.43948,0.04453 8.12238,-0.139636 4.84485,-0.239337 9.63036,-1.03564 14.42415,-1.720911 1.83659,-0.173612 3.64343,-0.604457 5.48604,-0.710925 0.16751,0.02397 0.34188,0.01876 0.50254,0.07193 0.69584,0.230253 1.18997,0.884483 1.85128,1.18206 1.05773,0.475954 1.37881,0.389435 2.54727,0.472985 0.58642,-0.136155 1.19337,-0.203023 1.75925,-0.408466 0.7038,-0.255519 1.37565,-0.598419 2.02773,-0.966409 2.80571,-1.583354 5.58543,-3.213468 8.33989,-4.884383 0.71962,-0.436539 1.38506,-0.956713 2.07757,-1.435087 2.78313,-1.922523 1.40629,-0.989899 4.11224,-2.789888 2.23433,-1.404695 8.74463,-5.179537 -2.06606,1.190585 0,0 5.92823,-4.75322 5.92823,-4.75322 v 0 c -3.58764,2.030846 -7.25931,3.949156 -10.6955,6.238995 -1.35874,0.921438 -2.70843,1.856195 -4.06795,2.776485 -0.70485,0.477126 -2.90015,1.766631 -2.12397,1.417336 1.48288,-0.66733 2.84572,-1.57462 4.25936,-2.378305 0.60968,-0.346615 -1.20903,0.71642 -1.84731,1.007001 -0.49373,0.224766 -1.02492,0.355923 -1.53737,0.533882 -0.81942,0.01288 -1.44575,0.115152 -2.22068,-0.190667 -0.96401,-0.380442 -1.51435,-1.46568 -2.56986,-1.664449 -1.92103,-0.02537 -3.7832,0.570659 -5.69029,0.73292 -4.96151,0.840883 -9.89898,1.895755 -14.93592,2.193152 -3.37358,0.190442 -4.66298,0.353259 -8.02923,0.189169 -4.3563,-0.212346 -8.61143,-1.14768 -12.85587,-2.085662 -3.92313,-0.865579 -0.76852,-0.201234 -4.03632,-0.820373 -1.11551,-0.211354 -2.07715,-0.120851 -2.61951,-1.201007 -0.60975,-1.279795 -1.09958,-2.709325 -2.19722,-3.65677 -2.13026,-1.208877 -4.30876,-0.686802 -6.54393,0.01059 -4.21628,1.305332 -8.4897,2.329285 -12.81349,3.217756 -1.38402,0.305779 -3.74678,0.83879 -5.141316,1.10309 -1.750158,0.3317 -3.68295,0.734774 -5.453801,0.2995 -0.821748,-1.531974 0.05123,-3.43036 -0.235981,-5.069291 -0.167625,-0.821527 -0.156234,-1.424113 -0.761723,-2.061298 -0.445267,-0.468577 -1.138285,-0.726103 -1.76852,-0.396094 -5.446744,2.85207 -5.718802,3.098846 -9.02046,5.395028 -3.762013,2.863096 -7.350316,5.948601 -10.787637,9.194482 0,0 7.249279,-3.00275 7.249279,-3.00275 z" />
    <path
       style="fill:#ffd5d5;stroke:#00ffff;stroke-width:0.264583"
       id="path48"
       d="m 81.02674,92.348322 c -0.579429,0.277738 4.050377,-2.452349 3.043568,-1.829771 -1.408848,0.871191 -2.94736,1.55008 -4.255256,2.566561 -0.661866,0.514395 1.51789,-0.71283 2.290003,-1.039188 2.028862,-0.85757 2.341467,-0.906539 4.413213,-1.568122 2.65771,-0.710504 5.528492,-1.405966 8.216212,-0.480658 2.429057,1.141222 4.643686,2.652845 7.0544,3.831519 2.02627,0.953854 4.15124,1.656752 6.36191,2.00968 0.26769,0.02991 0.99403,0.120131 1.27802,0.117858 2.73167,-0.02185 5.49342,-0.414983 8.21408,-0.612825 3.6314,-0.26742 7.28189,-0.255506 10.91031,-0.571251 1.89902,-0.165251 2.70806,-0.316275 4.57946,-0.597766 4.17147,-0.822089 8.34771,-1.660911 12.40329,-2.950688 2.27489,-0.826138 4.44206,-1.909723 6.64215,-2.910158 1.23725,-0.619807 2.34996,-0.544309 3.57467,0.01976 1.93418,1.123926 4.22331,1.45184 6.3807,1.918903 4.15595,0.915223 8.33918,1.659438 12.31231,3.219519 1.48333,0.622485 2.67776,1.586889 3.66916,2.843266 0.71509,0.906211 1.2408,1.93091 1.95425,2.840945 1.6768,1.376244 3.35391,0.975024 5.15563,-0.03373 2.58754,-1.448723 5.13334,-2.970762 7.70001,-4.456146 1.02527,-0.642851 2.01074,-1.342517 3.02701,-1.999031 0,0 -7.14237,2.789981 -7.14237,2.789981 v 0 c -0.97925,0.657789 -1.94899,1.330873 -2.95905,1.941357 1.77213,-1.004621 3.55412,-1.992056 5.3164,-3.013864 0.37807,-0.219215 -0.76729,0.419778 -1.16287,0.605552 -0.79817,0.374843 -1.76667,0.828884 -2.67519,0.539753 -0.23647,-0.07526 -0.44167,-0.226396 -0.6625,-0.339593 -0.79431,-0.872212 -1.35107,-1.870866 -2.09222,-2.785962 -1.07986,-1.33332 -2.32821,-2.421107 -3.92985,-3.085327 -0.5896,-0.239713 -1.16779,-0.509672 -1.7688,-0.71914 -3.4616,-1.206455 -7.1353,-1.592869 -10.66025,-2.554317 -2.01512,-0.517639 -4.11124,-0.991566 -5.95332,-1.986957 -1.28402,-0.711645 -2.60715,-1.130821 -4.0317,-0.540655 -2.26711,0.983189 -4.43661,2.185336 -6.74366,3.082631 -4.05665,1.415923 -8.24634,2.366769 -12.46735,3.154413 -5.15932,0.85617 -10.37509,1.147257 -15.59778,1.339628 -2.97768,0.121607 -5.96601,0.342103 -8.94521,0.269271 -2.21847,-0.209685 -4.3729,-0.773816 -6.41556,-1.675392 -2.46636,-1.166558 -4.55056,-2.688209 -6.91642,-3.997885 -0.2861,-0.119695 -0.55923,-0.277006 -0.8583,-0.35909 -2.618478,-0.71868 -5.408647,0.06024 -7.954423,0.649433 -2.27971,0.688128 -4.668707,1.387766 -6.7838,2.50989 -3.965694,2.103927 -7.879376,4.333658 -11.723481,6.65811 0,0 7.202604,-2.800525 7.202604,-2.800525 z" />
    <ellipse
       style="fill:#800000;stroke:#00ffff;stroke-width:0.264583"
       id="path11-4"
       cx="43.622139"
       cy="124.07815"
       rx="22.754168"
       ry="13.758333" />
    <text
       xml:space="preserve"
       style="font-size:16.1235px;line-height:1.25;font-family:'Arial Rounded MT Bold';-inkscape-font-specification:'Arial Rounded MT Bold, Normal';fill:#ffe6d5;stroke-width:1.00772"
       x="31.527502"
       y="135.89873"
       id="text15-1"
       transform="scale(1.0540301,0.94873952)"><tspan
         sodipodi:role="line"
         x="31.527502"
         y="135.89873"
         style="fill:#ffe6d5;stroke-width:1.00772"
         id="tspan144">30</tspan></text>
    <ellipse
       style="fill:#800000;stroke:#00ffff;stroke-width:0.264583"
       id="path11-5-9"
       cx="43.622139"
       cy="155.43018"
       rx="22.754169"
       ry="13.758333" />
    <text
       xml:space="preserve"
       style="font-size:16.1235px;line-height:1.25;font-family:'Arial Rounded MT Bold';-inkscape-font-specification:'Arial Rounded MT Bold, Normal';fill:#ffe6d5;stroke-width:1.00772"
       x="31.260836"
       y="169.02936"
       id="text15-5-4"
       transform="scale(1.0540301,0.94873952)"><tspan
         sodipodi:role="line"
         id="tspan13-2-7"
         x="31.260836"
         y="169.02936"
         style="fill:#ffe6d5;stroke-width:1.00772">40</tspan></text>
    <ellipse
       style="fill:#800000;stroke:#00ffff;stroke-width:0.264583"
       id="path11-6"
       cx="43.622139"
       cy="186.7234"
       rx="22.754168"
       ry="13.758333" />
    <text
       xml:space="preserve"
       style="font-size:16.1235px;line-height:1.25;font-family:'Arial Rounded MT Bold';-inkscape-font-specification:'Arial Rounded MT Bold, Normal';fill:#ffe6d5;stroke-width:1.00772"
       x="31.394169"
       y="202.034"
       id="text15-2"
       transform="scale(1.0540301,0.94873952)"><tspan
         sodipodi:role="line"
         id="tspan13-7"
         x="31.394169"
         y="202.034"
         style="fill:#ffe6d5;stroke-width:1.00772">50</tspan></text>
    <ellipse
       style="fill:#800000;stroke:#00ffff;stroke-width:0.264583"
       id="path11-5-4"
       cx="43.622139"
       cy="218.01663"
       rx="22.754169"
       ry="13.758333" />
    <text
       xml:space="preserve"
       style="font-size:16.1235px;line-height:1.25;font-family:'Arial Rounded MT Bold';-inkscape-font-specification:'Arial Rounded MT Bold, Normal';fill:#ffe6d5;stroke-width:1.00772"
       x="30.860834"
       y="235.10162"
       id="text15-5-40"
       transform="scale(1.0540301,0.94873952)"><tspan
         sodipodi:role="line"
         id="tspan13-2-0"
         x="30.860834"
         y="235.10162"
         style="fill:#ffe6d5;stroke-width:1.00772">60</tspan></text>
    <path
       style="fill:#ffd5d5;stroke:#00ffff;stroke-width:0.264583"
       id="path46-6"
       d="m 80.634653,128.02268 c 3.131346,-3.3328 6.706484,-6.23743 10.403581,-8.91813 4.59954,-2.88576 -2.54268,1.3392 -3.754998,2.10767 -0.100971,0.064 0.766198,-0.44623 1.197157,-0.1072 0.400394,0.31498 0.405452,0.99039 0.480604,1.39986 0.06947,1.79249 -0.588259,3.63138 0.210324,5.32109 0.233621,0.16696 0.429492,0.40701 0.700865,0.50088 1.736889,0.6008 3.964554,0.0694 5.673196,-0.25168 0.768503,-0.1444 4.429784,-0.94479 5.222318,-1.11686 4.25881,-0.88377 8.49173,-1.82419 12.66946,-3.03687 1.93737,-0.56446 4.0521,-1.23015 5.98045,-0.33247 0.99435,0.79929 1.41701,2.09248 1.92555,3.2251 0.18426,0.33399 0.38395,0.79084 0.72467,1.01075 1.18475,0.76468 2.92627,0.76037 4.25885,0.97301 0.81174,0.12953 1.62187,0.26886 2.43281,0.40329 4.37403,0.85895 8.74435,1.71872 13.20788,1.93021 3.66858,0.17382 4.43948,0.0445 8.12238,-0.13964 4.84484,-0.23933 9.63036,-1.03564 14.42414,-1.72091 1.8366,-0.17361 3.64344,-0.60446 5.48605,-0.71092 0.16751,0.024 0.34188,0.0188 0.50254,0.0719 0.69584,0.23025 1.18997,0.88448 1.85128,1.18206 1.05773,0.47595 1.37881,0.38943 2.54727,0.47298 0.58642,-0.13615 1.19337,-0.20302 1.75925,-0.40846 0.7038,-0.25552 1.37565,-0.59842 2.02773,-0.96641 2.80571,-1.58336 5.58543,-3.21347 8.33989,-4.88439 0.71962,-0.43654 1.38506,-0.95671 2.07757,-1.43508 2.78313,-1.92253 1.40629,-0.9899 4.11224,-2.78989 2.23433,-1.4047 8.74463,-5.17954 -2.06606,1.19058 0,0 5.92823,-4.75322 5.92823,-4.75322 v 0 c -3.58764,2.03085 -7.25931,3.94916 -10.6955,6.239 -1.35874,0.92144 -2.70843,1.85619 -4.06795,2.77648 -0.70485,0.47713 -2.90015,1.76663 -2.12397,1.41734 1.48288,-0.66733 2.84572,-1.57462 4.25936,-2.37831 0.60968,-0.34661 -1.20903,0.71642 -1.84731,1.00701 -0.49373,0.22476 -1.02492,0.35592 -1.53737,0.53388 -0.81942,0.0129 -1.44575,0.11515 -2.22068,-0.19067 -0.96401,-0.38044 -1.51435,-1.46568 -2.56986,-1.66445 -1.92103,-0.0254 -3.78321,0.57066 -5.6903,0.73292 -4.9615,0.84088 -9.89897,1.89576 -14.93591,2.19315 -3.37359,0.19045 -4.66298,0.35326 -8.02923,0.18917 -4.3563,-0.21234 -8.61143,-1.14768 -12.85587,-2.08566 -3.92314,-0.86558 -0.76852,-0.20123 -4.03632,-0.82037 -1.11551,-0.21136 -2.07716,-0.12085 -2.61951,-1.20101 -0.60975,-1.27979 -1.09959,-2.70932 -2.19723,-3.65677 -2.13025,-1.20888 -4.30875,-0.6868 -6.54392,0.0106 -4.21629,1.30533 -8.48971,2.32928 -12.8135,3.21776 -1.38402,0.30577 -3.74678,0.83879 -5.14131,1.10309 -1.750162,0.33169 -3.682954,0.73477 -5.453805,0.2995 -0.821748,-1.53198 0.05123,-3.43036 -0.235981,-5.06929 -0.167625,-0.82153 -0.156234,-1.42412 -0.761723,-2.0613 -0.445267,-0.46858 -1.138285,-0.72611 -1.76852,-0.3961 -5.446744,2.85207 -5.718802,3.09885 -9.020461,5.39503 -3.762012,2.8631 -7.350315,5.9486 -10.787636,9.19448 0,0 7.249279,-3.00275 7.249279,-3.00275 z" />
    <path
       style="fill:#ffd5d5;stroke:#00ffff;stroke-width:0.264583"
       id="path48-2"
       d="m 83.700231,158.62557 c -0.579428,0.27774 4.050378,-2.45235 3.043568,-1.82977 -1.408848,0.87119 -2.947359,1.55008 -4.255255,2.56656 -0.661866,0.51439 1.517889,-0.71283 2.290002,-1.03919 2.028862,-0.85757 2.341468,-0.90654 4.413214,-1.56812 2.65771,-0.71051 5.528492,-1.40597 8.216212,-0.48066 2.429055,1.14122 4.643688,2.65284 7.054398,3.83152 2.02627,0.95385 4.15124,1.65675 6.36192,2.00968 0.26768,0.0299 0.99402,0.12013 1.27801,0.11786 2.73167,-0.0219 5.49343,-0.41499 8.21408,-0.61283 3.63141,-0.26742 7.2819,-0.2555 10.91031,-0.57125 1.89903,-0.16525 2.70807,-0.31627 4.57947,-0.59776 4.17146,-0.82209 8.34771,-1.66092 12.40328,-2.95069 2.27489,-0.82614 4.44206,-1.90973 6.64215,-2.91016 1.23725,-0.61981 2.34997,-0.54431 3.57468,0.0198 1.93417,1.12392 4.2233,1.45184 6.3807,1.9189 4.15595,0.91522 8.33918,1.65944 12.31231,3.21952 1.48333,0.62249 2.67776,1.58689 3.66916,2.84327 0.71509,0.90621 1.2408,1.93091 1.95425,2.84094 1.6768,1.37624 3.35391,0.97503 5.15563,-0.0337 2.58754,-1.44872 5.13334,-2.97076 7.70001,-4.45615 1.02527,-0.64285 2.01074,-1.34251 3.02701,-1.99903 0,0 -7.14237,2.78999 -7.14237,2.78999 v 0 c -0.97925,0.65778 -1.94899,1.33087 -2.95905,1.94135 1.77213,-1.00462 3.55412,-1.99205 5.3164,-3.01386 0.37807,-0.21922 -0.76729,0.41978 -1.16287,0.60555 -0.79817,0.37484 -1.76667,0.82888 -2.67519,0.53975 -0.23647,-0.0753 -0.44167,-0.22639 -0.6625,-0.33959 -0.79431,-0.87221 -1.35107,-1.87087 -2.09222,-2.78596 -1.07986,-1.33332 -2.32821,-2.42111 -3.92985,-3.08533 -0.5896,-0.23971 -1.16779,-0.50967 -1.7688,-0.71914 -3.4616,-1.20645 -7.1353,-1.59287 -10.66025,-2.55432 -2.01512,-0.51764 -4.11125,-0.99156 -5.95332,-1.98695 -1.28402,-0.71165 -2.60715,-1.13082 -4.0317,-0.54066 -2.26711,0.98319 -4.43661,2.18534 -6.74366,3.08263 -4.05665,1.41593 -8.24634,2.36677 -12.46735,3.15442 -5.15932,0.85617 -10.37509,1.14725 -15.59778,1.33962 -2.97769,0.12161 -5.96601,0.34211 -8.94521,0.26928 -2.21848,-0.20969 -4.37291,-0.77382 -6.41557,-1.6754 -2.46636,-1.16656 -4.55056,-2.68821 -6.91642,-3.99788 -0.2861,-0.1197 -0.55923,-0.27701 -0.8583,-0.35909 -2.61848,-0.71868 -5.408645,0.0602 -7.954421,0.64943 -2.27971,0.68813 -4.668707,1.38777 -6.7838,2.50989 -3.965694,2.10393 -7.879376,4.33366 -11.723481,6.65811 0,0 7.202603,-2.80052 7.202603,-2.80052 z" />
    <path
       style="fill:#ffd5d5;stroke:#00ffff;stroke-width:0.264583"
       id="path46-0"
       d="m 82.222153,196.81434 c 3.131346,-3.33279 6.706484,-6.23742 10.403581,-8.91813 4.59954,-2.88576 -2.54268,1.33921 -3.754998,2.10768 -0.100971,0.064 0.766198,-0.44623 1.197157,-0.1072 0.400394,0.31498 0.405452,0.99038 0.480604,1.39986 0.06947,1.79249 -0.588259,3.63137 0.210324,5.32108 0.233621,0.16696 0.429492,0.40702 0.700865,0.50088 1.736889,0.6008 3.964554,0.0694 5.673196,-0.25167 0.768503,-0.1444 4.429788,-0.9448 5.222318,-1.11687 4.25881,-0.88377 8.49172,-1.82418 12.66946,-3.03686 1.93736,-0.56447 4.05209,-1.23016 5.98044,-0.33247 0.99436,0.79929 1.41701,2.09248 1.92555,3.2251 0.18427,0.33398 0.38395,0.79084 0.72467,1.01075 1.18475,0.76468 2.92627,0.76037 4.25885,0.97301 0.81174,0.12952 1.62188,0.26886 2.43282,0.40329 4.37403,0.85895 8.74435,1.71872 13.20788,1.9302 3.66858,0.17382 4.43948,0.0445 8.12238,-0.13963 4.84484,-0.23934 9.63036,-1.03564 14.42414,-1.72091 1.8366,-0.17361 3.64344,-0.60446 5.48605,-0.71093 0.16751,0.024 0.34188,0.0188 0.50254,0.0719 0.69584,0.23026 1.18997,0.88449 1.85128,1.18206 1.05773,0.47596 1.37881,0.38944 2.54727,0.47299 0.58642,-0.13616 1.19337,-0.20303 1.75925,-0.40847 0.7038,-0.25552 1.37565,-0.59842 2.02773,-0.96641 2.80571,-1.58335 5.58543,-3.21346 8.33989,-4.88438 0.71962,-0.43654 1.38506,-0.95671 2.07757,-1.43509 2.78313,-1.92252 1.40629,-0.9899 4.11224,-2.78988 2.23433,-1.4047 8.74463,-5.17954 -2.06606,1.19058 0,0 5.92823,-4.75322 5.92823,-4.75322 v 0 c -3.58764,2.03085 -7.25931,3.94916 -10.6955,6.23899 -1.35874,0.92144 -2.70843,1.8562 -4.06795,2.77649 -0.70485,0.47713 -2.90015,1.76663 -2.12397,1.41734 1.48288,-0.66733 2.84572,-1.57462 4.25936,-2.37831 0.60968,-0.34661 -1.20903,0.71642 -1.84731,1.007 -0.49373,0.22477 -1.02492,0.35593 -1.53737,0.53388 -0.81942,0.0129 -1.44575,0.11516 -2.22068,-0.19066 -0.96401,-0.38044 -1.51435,-1.46568 -2.56986,-1.66445 -1.92103,-0.0254 -3.78321,0.57066 -5.6903,0.73292 -4.9615,0.84088 -9.89897,1.89575 -14.93591,2.19315 -3.37359,0.19044 -4.66298,0.35326 -8.02923,0.18917 -4.3563,-0.21235 -8.61143,-1.14768 -12.85587,-2.08566 -3.92314,-0.86558 -0.76852,-0.20124 -4.03632,-0.82038 -1.11552,-0.21135 -2.07716,-0.12085 -2.61952,-1.201 -0.60975,-1.2798 -1.09958,-2.70933 -2.19722,-3.65677 -2.13026,-1.20888 -4.30876,-0.6868 -6.54393,0.0106 -4.21628,1.30533 -8.4897,2.32928 -12.81349,3.21775 -1.38402,0.30578 -3.74678,0.83879 -5.14131,1.10309 -1.75016,0.3317 -3.682954,0.73478 -5.453805,0.2995 -0.821748,-1.53197 0.05123,-3.43036 -0.235981,-5.06929 -0.167625,-0.82153 -0.156234,-1.42411 -0.761723,-2.0613 -0.445267,-0.46857 -1.138285,-0.7261 -1.76852,-0.39609 -5.446744,2.85207 -5.718802,3.09885 -9.020461,5.39503 -3.762012,2.86309 -7.350315,5.9486 -10.787636,9.19448 0,0 7.249279,-3.00275 7.249279,-3.00275 z" />
    <path
       style="fill:#ffd5d5;stroke:#00ffff;stroke-width:0.264583"
       id="path48-6"
       d="m 85.287731,227.41723 c -0.579428,0.27774 4.050378,-2.45235 3.043568,-1.82977 -1.408848,0.87119 -2.947359,1.55008 -4.255255,2.56656 -0.661866,0.5144 1.517889,-0.71283 2.290002,-1.03918 2.028862,-0.85757 2.341468,-0.90654 4.413214,-1.56813 2.65771,-0.7105 5.528492,-1.40596 8.216212,-0.48065 2.429058,1.14122 4.643688,2.65284 7.054398,3.83151 2.02627,0.95386 4.15124,1.65676 6.36191,2.00968 0.26769,0.0299 0.99403,0.12014 1.27802,0.11786 2.73167,-0.0219 5.49342,-0.41498 8.21408,-0.61282 3.6314,-0.26742 7.28189,-0.25551 10.91031,-0.57125 1.89903,-0.16525 2.70807,-0.31628 4.57947,-0.59777 4.17146,-0.82209 8.34771,-1.66091 12.40328,-2.95069 2.27489,-0.82614 4.44206,-1.90972 6.64215,-2.91016 1.23725,-0.6198 2.34997,-0.5443 3.57468,0.0198 1.93417,1.12393 4.2233,1.45184 6.3807,1.91891 4.15595,0.91522 8.33918,1.65944 12.31231,3.21952 1.48333,0.62248 2.67776,1.58689 3.66916,2.84326 0.71509,0.90621 1.2408,1.93091 1.95425,2.84095 1.6768,1.37624 3.35391,0.97502 5.15563,-0.0337 2.58754,-1.44873 5.13334,-2.97077 7.70001,-4.45615 1.02527,-0.64285 2.01074,-1.34252 3.02701,-1.99903 0,0 -7.14237,2.78998 -7.14237,2.78998 v 0 c -0.97925,0.65779 -1.94899,1.33087 -2.95905,1.94136 1.77213,-1.00462 3.55412,-1.99206 5.3164,-3.01387 0.37807,-0.21921 -0.76729,0.41978 -1.16287,0.60556 -0.79817,0.37484 -1.76667,0.82888 -2.67519,0.53975 -0.23647,-0.0753 -0.44167,-0.2264 -0.6625,-0.33959 -0.79431,-0.87222 -1.35107,-1.87087 -2.09222,-2.78597 -1.07986,-1.33332 -2.32821,-2.4211 -3.92985,-3.08532 -0.5896,-0.23972 -1.16779,-0.50968 -1.7688,-0.71914 -3.4616,-1.20646 -7.1353,-1.59287 -10.66025,-2.55432 -2.01512,-0.51764 -4.11125,-0.99157 -5.95332,-1.98696 -1.28402,-0.71164 -2.60715,-1.13082 -4.0317,-0.54065 -2.26711,0.98319 -4.43661,2.18533 -6.74366,3.08263 -4.05665,1.41592 -8.24634,2.36677 -12.46735,3.15441 -5.15932,0.85617 -10.37509,1.14726 -15.59779,1.33963 -2.97768,0.12161 -5.96601,0.3421 -8.94521,0.26927 -2.21847,-0.20968 -4.3729,-0.77382 -6.41556,-1.67539 -2.46636,-1.16656 -4.55056,-2.68821 -6.91642,-3.99789 -0.2861,-0.11969 -0.55923,-0.277 -0.8583,-0.35909 -2.61848,-0.71868 -5.408645,0.0602 -7.954421,0.64944 -2.27971,0.68812 -4.668707,1.38776 -6.7838,2.50989 -3.965694,2.10392 -7.879376,4.33365 -11.723481,6.65811 0,0 7.202603,-2.80053 7.202603,-2.80053 z" />
    <ellipse
       style="fill:#800000;stroke:#00ffff;stroke-width:0.264583"
       id="path11-6-5"
       cx="42.819809"
       cy="249.76668"
       rx="22.754169"
       ry="13.758333" />
    <text
       xml:space="preserve"
       style="font-size:16.1235px;line-height:1.25;font-family:'Arial Rounded MT Bold';-inkscape-font-specification:'Arial Rounded MT Bold, Normal';fill:#ffe6d5;stroke-width:1.00772"
       x="30.632973"
       y="268.48349"
       id="text15-2-9"
       transform="scale(1.0540301,0.94873951)"><tspan
         sodipodi:role="line"
         id="tspan13-7-3"
         x="30.632973"
         y="268.48349"
         style="fill:#ffe6d5;stroke-width:1.00772">70</tspan></text>
    <path
       style="fill:#ffd5d5;stroke:#00ffff;stroke-width:0.264583"
       id="path46-0-9"
       d="m 81.419837,259.8576 c 3.13134,-3.33279 6.70648,-6.23742 10.40358,-8.91813 4.59954,-2.88576 -2.54268,1.33921 -3.755,2.10768 -0.10097,0.064 0.7662,-0.44623 1.19716,-0.1072 0.40039,0.31498 0.40545,0.99038 0.4806,1.39986 0.0695,1.79249 -0.58826,3.63137 0.21032,5.32108 0.23362,0.16696 0.4295,0.40702 0.70087,0.50088 1.73689,0.6008 3.96455,0.0694 5.67319,-0.25167 0.76851,-0.1444 4.429793,-0.9448 5.222323,-1.11687 4.25881,-0.88377 8.49172,-1.82418 12.66946,-3.03686 1.93736,-0.56447 4.05209,-1.23016 5.98044,-0.33247 0.99436,0.79929 1.41701,2.09248 1.92555,3.2251 0.18427,0.33398 0.38395,0.79084 0.72467,1.01075 1.18475,0.76468 2.92627,0.76037 4.25885,0.97301 0.81174,0.12952 1.62188,0.26886 2.43282,0.40329 4.37403,0.85895 8.74435,1.71872 13.20788,1.9302 3.66858,0.17382 4.43948,0.0445 8.12238,-0.13963 4.84484,-0.23934 9.63036,-1.03564 14.42414,-1.72091 1.8366,-0.17361 3.64344,-0.60446 5.48605,-0.71093 0.16751,0.024 0.34188,0.0188 0.50254,0.0719 0.69584,0.23026 1.18997,0.88449 1.85128,1.18206 1.05773,0.47596 1.37881,0.38944 2.54727,0.47299 0.58642,-0.13616 1.19337,-0.20303 1.75925,-0.40847 0.7038,-0.25552 1.37565,-0.59842 2.02773,-0.96641 2.80571,-1.58335 5.58543,-3.21346 8.33989,-4.88438 0.71962,-0.43654 1.38506,-0.95671 2.07757,-1.43509 2.78313,-1.92252 1.40629,-0.9899 4.11224,-2.78988 2.23433,-1.4047 8.74463,-5.17954 -2.06606,1.19058 0,0 5.92823,-4.75322 5.92823,-4.75322 v 0 c -3.58764,2.03085 -7.25931,3.94916 -10.6955,6.23899 -1.35874,0.92144 -2.70843,1.8562 -4.06795,2.77649 -0.70485,0.47713 -2.90015,1.76663 -2.12397,1.41734 1.48288,-0.66733 2.84572,-1.57462 4.25936,-2.37831 0.60968,-0.34661 -1.20903,0.71642 -1.84731,1.007 -0.49373,0.22477 -1.02492,0.35593 -1.53737,0.53388 -0.81942,0.0129 -1.44575,0.11516 -2.22068,-0.19066 -0.96401,-0.38044 -1.51435,-1.46568 -2.56986,-1.66445 -1.92103,-0.0254 -3.78321,0.57066 -5.6903,0.73292 -4.9615,0.84088 -9.89897,1.89575 -14.93591,2.19315 -3.37359,0.19044 -4.66298,0.35326 -8.02923,0.18917 -4.3563,-0.21235 -8.61143,-1.14768 -12.85587,-2.08566 -3.92314,-0.86558 -0.76852,-0.20124 -4.03632,-0.82038 -1.11552,-0.21135 -2.07716,-0.12085 -2.61952,-1.201 -0.60975,-1.2798 -1.09958,-2.70933 -2.19722,-3.65677 -2.13026,-1.20888 -4.30876,-0.6868 -6.54393,0.0106 -4.21628,1.30533 -8.4897,2.32928 -12.81349,3.21775 -1.38402,0.30578 -3.74678,0.83879 -5.14131,1.10309 -1.75016,0.3317 -3.682953,0.73478 -5.453803,0.2995 -0.82175,-1.53197 0.0512,-3.43036 -0.23598,-5.06929 -0.16763,-0.82153 -0.15624,-1.42411 -0.76173,-2.0613 -0.44526,-0.46857 -1.13828,-0.7261 -1.76852,-0.39609 -5.44674,2.85207 -5.7188,3.09885 -9.02046,5.39503 -3.76201,2.86309 -7.35031,5.9486 -10.78763,9.19448 0,0 7.24928,-3.00275 7.24928,-3.00275 z" />
  </g>
</svg>
