<?xml version="1.0" encoding="UTF-8" standalone="no"?>
<svg
   xmlns:dc="http://purl.org/dc/elements/1.1/"
   xmlns:cc="http://creativecommons.org/ns#"
   xmlns:rdf="http://www.w3.org/1999/02/22-rdf-syntax-ns#"
   xmlns:svg="http://www.w3.org/2000/svg"
   xmlns="http://www.w3.org/2000/svg"
   xmlns:sodipodi="http://sodipodi.sourceforge.net/DTD/sodipodi-0.dtd"
   xmlns:inkscape="http://www.inkscape.org/namespaces/inkscape"
   width="210mm"
   height="297mm"
   viewBox="0 0 210 297"
   version="1.1"
   id="svg8"
   sodipodi:docname="Product.svg"
   inkscape:version="1.0.1 (3bc2e813f5, 2020-09-07)">
  <defs
     id="defs2">
    <rect
       x="85.195833"
       y="108.47917"
       width="75.670833"
       height="100.54167"
       id="rect40" />
    <rect
       x="39.309524"
       y="97.517857"
       width="100.54167"
       height="89.958333"
       id="rect16" />
  </defs>
  <sodipodi:namedview
     id="base"
     pagecolor="#ffffff"
     bordercolor="#666666"
     borderopacity="1.0"
     inkscape:pageopacity="0.0"
     inkscape:pageshadow="2"
     inkscape:zoom="0.5"
     inkscape:cx="800.91343"
     inkscape:cy="534.87291"
     inkscape:document-units="mm"
     inkscape:current-layer="layer1"
     inkscape:document-rotation="0"
     showgrid="false"
     inkscape:window-width="1600"
     inkscape:window-height="877"
     inkscape:window-x="-8"
     inkscape:window-y="-8"
     inkscape:window-maximized="1" />
  <metadata
     id="metadata5">
    <rdf:RDF>
      <cc:Work
         rdf:about="">
        <dc:format>image/svg+xml</dc:format>
        <dc:type
           rdf:resource="http://purl.org/dc/dcmitype/StillImage" />
      </cc:Work>
    </rdf:RDF>
  </metadata>
  <g
     inkscape:label="Layer 1"
     inkscape:groupmode="layer"
     id="layer1">
    <path
       d="m 31.422067,59.191463 c 2.96398,0 6.39029,-0.74057 10.28063,-2.22257 v 9.53921 c -0.86471,0.30864 -2.09928,0.64853 -3.70456,1.01924 0.49358,1.41992 0.741,2.74738 0.741,3.98238 0,3.95155 -1.18813,7.39391 -3.56565,10.32664 -2.3771,2.93274 -5.44917,4.67778 -9.21579,5.233 -2.46914,0.37071 -3.70413,1.69816 -3.70413,3.98279 0,0.80264 0.40111,1.6057 1.20417,2.40792 1.04964,1.17335 2.59327,1.91477 4.6309,2.22341 8.82988,1.35828 13.24419,5.032007 13.24419,11.021197 0,9.5713 -5.71094,14.35631 -17.13409,14.35631 -4.69255,0 -8.55207,-0.83346 -11.57685,-2.50081 -3.82995,-2.09969 -5.74345,-5.40314 -5.74345,-9.91118 0,-5.18612 2.8711,-8.736147 8.61286,-10.650487 v -0.18493 c -2.09928,-1.29664 -3.14849,-3.27263 -3.14849,-5.92797 0,-3.45755 0.98799,-5.61932 2.96398,-6.48276 v -0.18535 c -1.97599,-0.67893 -3.73622,-2.22341 -5.27943,-4.63133 -1.72899,-2.59327 -2.5937,-5.3719 -2.5937,-8.33546 0,-4.44555 1.57446,-8.1501 4.72379,-11.11366 3.02563,-2.77863 6.63772,-4.16773 10.83627,-4.16773 3.02563,-4.7e-4 5.83465,0.74057 8.42835,2.22214 z m 0.37029,48.716967 c 0,-3.14934 -2.59328,-4.72379 -7.78025,-4.72379 -5.00119,0 -7.50199,1.6361 -7.50199,4.90914 0,3.21014 2.7174,4.81542 8.15052,4.81542 4.75462,5.8e-4 7.13172,-1.6665 7.13172,-5.00077 z M 17.529347,72.343603 c 0,4.26062 1.94475,6.39072 5.83423,6.39072 3.76663,0 5.64973,-2.16135 5.64973,-6.48319 0,-1.79063 -0.43193,-3.33384 -1.29622,-4.6309 -1.04964,-1.41993 -2.50081,-2.13052 -4.35351,-2.13052 -3.88906,-5.8e-4 -5.83423,2.28463 -5.83423,6.85389 z m 33.99375,-22.136132 c -1.79021,0 -3.31822,-0.678507 -4.58404,-2.03721 -1.26581,-1.358703 -1.89872,-2.96356 -1.89872,-4.815837 0,-1.914344 0.63291,-3.550023 1.89872,-4.908725 1.26582,-1.358704 2.79383,-2.038055 4.58404,-2.038055 1.72899,0 3.2266,0.678929 4.49242,2.037632 1.26581,1.358703 1.8983,2.994382 1.8983,4.908726 0,1.852699 -0.63249,3.457134 -1.8983,4.815837 -1.26582,1.358703 -2.76343,2.037632 -4.49242,2.037632 z m -5.27901,48.346682 c 0.12371,-1.23457 0.18493,-3.33384 0.18493,-6.29783 v -28.80467 c 0,-2.90149 -0.0616,-4.9083 -0.18493,-6.02 h 10.46598 c -0.12371,1.17335 -0.18535,3.11851 -0.18535,5.83507 v 28.43354 c 0,3.14934 0.0616,5.43355 0.18535,6.85347 h -10.46598 z m 29.63053,-41.1225 h 8.057642 v 8.98356 c -0.308643,0 -0.879908,-0.0304 -1.713792,-0.0925 a 32.103894,32.103894 0 0 0 -2.361895,-0.0929 h -3.982377 v 17.22699 c 0,4.13733 1.35828,6.20536 4.074841,6.20536 1.914345,0 3.642912,-0.52439 5.186966,-1.57446 v 9.26181 c -2.284629,1.23542 -5.032431,1.8527 -8.243412,1.8527 -4.507197,0 -7.624867,-1.60528 -9.353853,-4.81541 -1.29622,-2.40876 -1.94475,-6.20536 -1.94475,-11.39233 v -16.57887 h 0.0929 v -0.18494 l -1.38952,-0.0925 c -0.80264,0 -1.85228,0.0925 -3.14892,0.2774 v -8.98399 h 4.53844 v -3.61167 c 0,-1.72899 -0.0929,-3.11851 -0.27782,-4.167726 h 10.743381 c -0.184931,1.172926 -0.277821,2.500806 -0.277821,3.982376 z m 32.532443,-0.27782 c -2.65491,0 -5.43354,0.92635 -8.33546,2.7782 V 43.724288 c 0,-3.5192 0.0616,-5.834653 0.18493,-6.945935 H 89.698087 c 0.185354,0.987994 0.277824,3.303024 0.277824,6.945935 v 48.994795 c 0,2.83985 -0.09247,4.78543 -0.277824,5.83465 h 10.743373 c 0,-0.18536 -0.0616,-0.94113 -0.18493,-2.26901 -0.12329,-1.32788 -0.18493,-2.51643 -0.18493,-3.56564 v -22.78424 c 2.16092,-2.03721 4.2602,-3.05561 6.29783,-3.05561 2.34669,0 4.13733,1.17251 5.37232,3.51878 0.92551,1.8527 1.38911,4.16816 1.38911,6.94678 l -0.0929,12.50277 c 0,2.10012 -0.15411,5.00204 -0.46275,8.70617 h 11.20613 c -0.24658,-1.54321 -0.37029,-4.38391 -0.37029,-8.52124 v -12.6877 c 0,-5.37232 -1.20417,-9.94116 -3.61209,-13.70778 -2.71698,-4.32226 -6.51442,-6.48318 -11.39191,-6.48318 z m 32.78958,41.77103 c -4.87833,0 -8.48957,-2.16134 -10.83627,-6.4836 -1.85227,-3.5192 -2.77862,-8.11929 -2.77862,-13.79983 v -12.68855 c 0,-4.19855 -0.12329,-7.03924 -0.37029,-8.52123 h 11.11409 c -0.18536,1.3587 -0.30864,4.26062 -0.37071,8.70617 l -0.0925,12.50319 c 0,3.5192 0.40111,6.05125 1.20375,7.59404 0.92677,1.91477 2.62451,2.87194 5.09407,2.87194 1.729,0 3.67416,-1.01924 5.83508,-3.05603 v -22.78382 c 0,-1.04963 -0.0621,-2.25423 -0.18535,-3.61251 -0.12413,-1.3587 -0.18494,-2.09927 -0.18494,-2.22298 h 10.74296 c -0.12287,1.04964 -0.18493,2.9948 -0.18493,5.83507 v 28.34107 c 0,3.64249 0.0621,5.95795 0.18493,6.94594 H 150.2731 v -3.33385 c -2.8407,2.46957 -5.8659,3.70498 -9.07646,3.70498 z m 41.68153,-0.0933 c -3.33385,0 -6.11248,-1.20375 -8.33547,-3.61124 v 3.33384 h -9.81744 c 0.18535,-1.04921 0.27823,-2.99522 0.27823,-5.83465 V 43.724288 c 0,-3.642911 -0.0929,-5.957941 -0.27823,-6.945935 h 10.55844 c -0.12371,1.111282 -0.18493,3.426735 -0.18493,6.945935 v 16.115705 c 2.83984,-1.79064 5.61932,-2.68616 8.33546,-2.68616 4.8779,0 8.70659,2.16092 11.4848,6.48318 2.34627,3.76662 3.5192,8.33546 3.5192,13.70778 0,5.49519 -1.23499,10.28021 -3.70414,14.35547 -2.96483,4.75462 -6.91638,7.13129 -11.85592,7.13129 z m -1.38953,-31.95232 c -2.03805,0 -4.16773,1.0184 -6.39072,3.05561 v 16.02281 c 1.97599,1.91392 3.92074,2.87194 5.83465,2.87194 2.4075,0 4.2298,-1.32788 5.46437,-3.98322 0.98842,-2.09928 1.482,-4.60051 1.482,-7.502 8.7e-4,-6.97676 -2.12968,-10.46514 -6.3903,-10.46514 z M 53.459817,107.43174 c -0.58772,-0.79757 -1.3435,-1.30128 -2.37118,-1.30128 -0.98673,0 -1.93081,0.75577 -1.93081,1.7843 0,2.66505 6.2746,1.5525 6.2746,6.86234 0,3.16918 -1.97261,5.41412 -5.20428,5.41412 -2.18287,0 -3.7776,-1.25864 -4.86903,-3.08515 l 1.99414,-1.95193 c 0.41926,1.21768 1.53182,2.3087 2.85421,2.3087 1.25863,0 2.03552,-1.0699 2.03552,-2.28759 0,-1.63694 -1.51113,-2.09843 -2.74908,-2.5806 -2.03594,-0.83938 -3.52637,-1.86791 -3.52637,-4.32311 0,-2.62325 1.95192,-4.7428 4.61739,-4.7428 1.40599,0 3.35749,0.69287 4.32311,1.76277 z m 10.65894,12.75948 c -4.82766,0 -7.82838,-3.69358 -7.82838,-8.35277 0,-4.70057 3.10627,-8.31013 7.82838,-8.31013 4.721682,0 7.827528,3.60956 7.827528,8.31013 0,4.65919 -3.000715,8.35277 -7.827528,8.35277 z m 0,-13.61954 c -2.91712,0 -4.63851,2.58061 -4.63851,5.14137 0,2.4341 1.21768,5.43523 4.63851,5.43523 3.4204,0 4.63724,-3.00113 4.63724,-5.43523 0,-2.56076 -1.72055,-5.14137 -4.63724,-5.14137 z m 19.912722,1.57361 c -0.860484,-1.04921 -2.161765,-1.67916 -3.484158,-1.67916 -2.958914,0 -4.658771,2.72796 -4.658771,5.45718 0,2.66506 1.76319,5.32969 4.638082,5.32969 1.32197,0 2.644363,-0.69287 3.504847,-1.67833 v 3.67163 c -1.154349,0.54635 -2.308697,0.9445 -3.589289,0.9445 -4.448506,0 -7.743509,-3.84051 -7.743509,-8.20542 0,-4.49157 3.16876,-8.45748 7.806842,-8.45748 1.237948,0 2.454784,0.33609 3.525956,0.92339 z m 5.118566,11.62624 h -3.084734 v -15.82352 h 3.084734 z m 5.476192,-3.3368 -1.301278,3.33638 h -3.252788 l 6.170321,-16.24321 h 2.392298 l 6.00228,16.24321 h -3.29543 l -1.21726,-3.33638 z m 2.665053,-8.26917 h -0.0418 l -1.742083,5.75106 h 3.756483 z m 11.37206,8.91982 h 4.36533 v 2.68615 h -7.45007 v -15.82352 h 3.08474 z m 21.99005,-8.94009 c -0.86007,-1.04921 -2.16134,-1.67916 -3.48374,-1.67916 -2.95892,0 -4.65877,2.72796 -4.65877,5.45718 0,2.66506 1.76277,5.32969 4.63766,5.32969 1.32239,0 2.64478,-0.69287 3.50485,-1.67833 v 3.67163 c -1.15393,0.54635 -2.3087,0.9445 -3.58845,0.9445 -4.44893,0 -7.74393,-3.84051 -7.74393,-8.20542 0,-4.49157 3.16876,-8.45748 7.80684,-8.45748 1.23795,0 2.45521,0.33609 3.52554,0.92339 z m 9.10685,12.04593 c -4.82724,0 -7.82795,-3.69358 -7.82795,-8.35277 0,-4.70057 3.10585,-8.31013 7.82795,-8.31013 4.7221,0 7.82753,3.60956 7.82753,8.31013 0,4.65919 -3.00114,8.35277 -7.82753,8.35277 z m 0,-13.61954 c -2.91754,0 -4.63808,2.58061 -4.63808,5.14137 0,2.4341 1.21768,5.43523 4.63808,5.43523 3.4204,0 4.63808,-3.00113 4.63808,-5.43523 8.7e-4,-2.56076 -1.72097,-5.14137 -4.63808,-5.14137 z m 9.3357,-2.62367 h 4.40755 c 4.57432,0 7.63838,3.42082 7.63838,7.93224 0,4.44977 -3.14765,7.89086 -7.66034,7.89086 h -4.38601 v -15.8231 z m 3.08516,13.13737 h 0.50328 c 3.79787,0 5.26804,-2.09886 5.26804,-5.22624 0,-3.44109 -1.76277,-5.22497 -5.26804,-5.22497 h -0.50328 z m 13.55451,2.68615 h -3.08558 v -15.82352 h 3.08558 z m 2.24368,-16.24321 h 2.2251 l 8.33124,11.05963 h 0.0418 v -10.63994 h 3.08558 v 16.1385 h -2.2251 l -8.33082,-11.06004 h -0.0422 v 10.74506 h -3.08558 z m 29.9037,7.82796 v 0.39857 c 0,4.46962 -2.28801,8.43595 -7.19799,8.43595 -4.6174,0 -7.53494,-3.903 -7.53494,-8.26791 0,-4.51268 3.00114,-8.39499 7.72325,-8.39499 2.68616,0 5.03665,1.36419 6.25391,3.77718 l -2.72838,1.4689 c -0.62953,-1.42668 -1.97261,-2.51812 -3.60956,-2.51812 -2.98045,0 -4.44893,3.04294 -4.44893,5.66661 0,2.62241 1.4896,5.53953 4.46962,5.53953 1.93081,0 3.54707,-1.67875 3.60998,-3.58888 h -3.35791 v -2.51769 h 6.82095 z"
       id="path2"
       style="stroke-width:0.422219" />
    <path
       d="m 33.443957,209.37244 c 0,-19.86577 7.02799,-36.82665 21.08411,-50.88263 14.05583,-14.05597 31.01671,-21.08396 50.882633,-21.08396 19.86563,0 36.8265,7.02799 50.88262,21.08396 14.05584,14.05598 21.08397,31.01686 21.08397,50.88263 0,19.86578 -7.02799,36.82665 -21.08397,50.88263 -14.05597,14.05598 -31.01684,21.08411 -50.88262,21.08411 -19.865923,0 -36.826803,-7.02799 -50.882633,-21.08411 -14.05612,-14.05583 -21.08411,-31.01699 -21.08411,-50.88263 z m 7.87135,0 c 0,17.61697 6.27834,32.70357 18.83501,45.26039 12.55666,12.55652 27.64341,18.83501 45.260383,18.83501 17.61682,0 32.70357,-6.27834 45.26024,-18.83501 12.55667,-12.55667 18.83501,-27.64342 18.83501,-45.26039 0,-17.61682 -6.2782,-32.70357 -18.83501,-45.26023 -12.55667,-12.55668 -27.64357,-18.83501 -45.26024,-18.83501 -17.616973,0 -32.703573,6.27833 -45.260383,18.83501 -12.55667,12.55666 -18.83501,27.64341 -18.83501,45.26023 z m 20.24075,15.46158 c -0.37483,-0.37483 -0.37483,-0.74966 0,-1.12448 0.74951,-0.74966 1.68671,-1.03077 2.81105,-0.84336 1.12448,0.18741 1.78042,0.37482 1.96784,0.56224 1.31188,0.56224 2.76441,1.8272 4.35728,3.79519 1.59286,1.96783 2.85797,3.3265 3.79518,4.07615 4.49791,3.74826 9.08939,4.02938 13.77471,0.84337 0.37483,-1.3119 0.98399,-2.43637 1.8272,-3.37358 0.84322,-0.93707 1.63994,-1.59287 2.3896,-1.96784 0.74979,-0.37482 2.06168,-0.93706 3.93581,-1.68672 -6.18477,-0.56224 -11.198,-1.63993 -15.03996,-3.23295 -3.84197,-1.593 -6.88751,-3.60762 -9.13646,-6.04399 -2.99861,-3.37344 -4.82596,-7.77764 -5.4819,-13.21262 -0.65609,-5.43498 -0.23434,-10.40142 1.26511,-14.89933 1.12448,-2.8112 2.71749,-5.34113 4.77888,-7.59023 -1.4993,-4.68532 -1.21818,-10.02659 0.84336,-16.02381 5.99722,0.37483 11.4322,2.43637 16.30494,6.18463 9.37064,-2.43637 19.116123,-2.53007 29.236283,-0.28112 1.31189,-0.93706 3.32665,-2.10832 6.04399,-3.51407 2.71749,-1.40559 6.13785,-2.20217 10.26094,-2.38958 0.74965,2.06154 1.26511,4.49791 1.54623,7.3091 0.28112,2.8112 0.14063,5.43498 -0.42161,7.87135 4.31035,4.49791 6.55931,10.49513 6.74673,17.99165 0,5.99721 -1.03064,10.96366 -3.09217,14.89933 -2.06155,3.93567 -5.7161,7.2154 -10.96367,9.83904 -3.56084,1.68686 -8.24617,2.71749 -14.05597,3.09232 2.62393,1.31189 4.54484,2.6707 5.76302,4.0763 1.21833,1.4056 2.01476,3.60763 2.38973,6.60624 v 8.85547 l 0.28098,8.57408 c 0.56224,0.93721 1.21833,1.73364 1.96798,2.38973 0.74965,0.65595 1.40559,1.12448 1.96783,1.4056 0.5621,0.28112 0.74966,0.70287 0.5621,1.26511 -0.18741,0.56224 -0.93707,0.84336 -2.24881,0.84336 -3.18617,0 -5.7161,-1.12448 -7.59023,-3.37358 -0.56224,-0.93707 -0.84336,-2.0614 -0.84336,-3.37343 v -13.49375 c 0,-1.4993 -0.37482,-2.57699 -1.12448,-3.23294 -0.74965,-0.65609 -1.4993,-1.0777 -2.24895,-1.26511 v 17.71053 c 0,3.18602 0.37482,5.24756 1.12448,6.18463 0.74965,0.93706 1.21818,1.87427 1.40573,2.81119 0.18742,0.18741 0.0468,0.32791 -0.42174,0.42161 -0.46839,0.0936 -1.26497,-0.0468 -2.38959,-0.42161 -2.43637,-0.56224 -4.12308,-1.82734 -5.06015,-3.79518 -0.93707,-1.96784 -1.4056,-4.07631 -1.4056,-6.32526 v -17.42898 h -3.65455 v 17.42941 c 0,2.24895 -0.46868,4.40435 -1.40574,6.46575 -1.31175,2.62393 -3.748263,4.02938 -7.308973,4.21679 -0.56224,-0.18741 -0.84336,-0.37483 -0.84336,-0.5621 0.18741,-0.18755 0.74966,-1.12447 1.68672,-2.81119 0.18742,-0.37482 0.42175,-1.12448 0.70288,-2.24895 0.28126,-1.12448 0.42174,-2.43638 0.42174,-3.93568 v -17.71067 c -0.74965,0.18741 -1.45252,0.60902 -2.10846,1.26511 -0.65595,0.65609 -0.98399,1.73364 -0.98399,3.23294 v 13.49374 c 0,1.31175 -0.28113,2.43637 -0.84337,3.37344 -1.68671,2.24895 -4.21679,3.37357 -7.59008,3.37357 -1.31189,0 -2.06154,-0.28111 -2.24895,-0.84335 -0.18756,-0.37483 -0.14063,-0.70288 0.14063,-0.98399 0.28126,-0.28112 0.70287,-0.60917 1.26511,-0.98399 0.56224,-0.37483 0.93707,-0.65609 1.12448,-0.84336 0.74965,-0.56224 1.31174,-1.31189 1.68671,-2.24896 0.56224,-0.74965 0.70273,-2.71748 0.42161,-5.90351 -0.28112,-3.18602 -0.32804,-5.24756 -0.14063,-6.18463 -4.87288,1.68671 -9.83918,0.84322 -14.89948,-2.53008 -1.4993,-1.4993 -2.99861,-3.65469 -4.49791,-6.46574 -1.12448,-2.06169 -3.37344,-4.49806 -6.74672,-7.30925 z"
       id="path2-5"
       style="stroke-width:0.143943" />
  </g>
</svg>
