<?xml version="1.0" encoding="UTF-8" standalone="no"?>
<svg
   xmlns:dc="http://purl.org/dc/elements/1.1/"
   xmlns:cc="http://creativecommons.org/ns#"
   xmlns:rdf="http://www.w3.org/1999/02/22-rdf-syntax-ns#"
   xmlns:svg="http://www.w3.org/2000/svg"
   xmlns="http://www.w3.org/2000/svg"
   xmlns:sodipodi="http://sodipodi.sourceforge.net/DTD/sodipodi-0.dtd"
   xmlns:inkscape="http://www.inkscape.org/namespaces/inkscape"
   width="210mm"
   height="297mm"
   viewBox="0 0 210 297"
   version="1.1"
   id="svg8"
   sodipodi:docname="Cart.svg"
   inkscape:version="1.0.1 (3bc2e813f5, 2020-09-07)">
  <defs
     id="defs2">
    <rect
       x="85.195833"
       y="108.47917"
       width="75.670833"
       height="100.54167"
       id="rect40" />
    <rect
       x="39.309524"
       y="97.517857"
       width="100.54167"
       height="89.958333"
       id="rect16" />
  </defs>
  <sodipodi:namedview
     id="base"
     pagecolor="#ffffff"
     bordercolor="#666666"
     borderopacity="1.0"
     inkscape:pageopacity="0.0"
     inkscape:pageshadow="2"
     inkscape:zoom="0.5"
     inkscape:cx="359.91343"
     inkscape:cy="534.87291"
     inkscape:document-units="mm"
     inkscape:current-layer="layer1"
     inkscape:document-rotation="0"
     showgrid="false"
     inkscape:window-width="1600"
     inkscape:window-height="877"
     inkscape:window-x="-8"
     inkscape:window-y="-8"
     inkscape:window-maximized="1" />
  <metadata
     id="metadata5">
    <rdf:RDF>
      <cc:Work
         rdf:about="">
        <dc:format>image/svg+xml</dc:format>
        <dc:type
           rdf:resource="http://purl.org/dc/dcmitype/StillImage" />
      </cc:Work>
    </rdf:RDF>
  </metadata>
  <g
     inkscape:label="Layer 1"
     inkscape:groupmode="layer"
     id="layer1">
    <text
       xml:space="preserve"
       id="text14"
       style="font-style:normal;font-weight:normal;font-size:10.5833px;line-height:1.25;font-family:sans-serif;white-space:pre;shape-inside:url(#rect16);fill:#000000;fill-opacity:1;stroke:none;"
       transform="translate(2.1166667,26.9875)" />
    <ellipse
       style="fill:#800000;stroke:#00ffff;stroke-width:0.348709"
       id="path11"
       cx="88.072144"
       cy="57.69228"
       rx="39.645435"
       ry="13.71627" />
    <text
       xml:space="preserve"
       style="font-size:16.1235px;line-height:1.25;font-family:'Arial Rounded MT Bold';-inkscape-font-specification:'Arial Rounded MT Bold, Normal';fill:#ffe6d5;stroke-width:1.00772"
       x="54.08807"
       y="66.525055"
       id="text15"
       transform="scale(1.0540301,0.94873951)"><tspan
         sodipodi:role="line"
         id="tspan13"
         x="54.08807"
         y="66.525055"
         style="fill:#ffe6d5;stroke-width:1.00772">103101</tspan></text>
    <ellipse
       style="fill:#800000;stroke:#00ffff;stroke-width:0.347553"
       id="path11-5"
       cx="87.807556"
       cy="90.034554"
       rx="39.381432"
       ry="13.716848" />
    <text
       xml:space="preserve"
       style="font-size:16.1235px;line-height:1.25;font-family:'Arial Rounded MT Bold';-inkscape-font-specification:'Arial Rounded MT Bold, Normal';fill:#ffe6d5;stroke-width:1.00772"
       x="56.229568"
       y="100.61479"
       id="text15-5"
       transform="scale(1.0540301,0.94873951)"><tspan
         sodipodi:role="line"
         id="tspan13-2"
         x="56.229568"
         y="100.61479"
         style="fill:#ffe6d5;stroke-width:1.00772">209106</tspan></text>
    <text
       xml:space="preserve"
       id="text38"
       style="font-size:4.23333px;line-height:1.25;font-family:'Arial Rounded MT Bold';-inkscape-font-specification:'Arial Rounded MT Bold, Normal';white-space:pre;shape-inside:url(#rect40);"
       transform="translate(2.1166667,26.9875)" />
    <path
       style="fill:#ffd5d5;stroke:#00ffff;stroke-width:0.180939"
       id="path46"
       d="m 141.13086,61.972045 c 1.46444,-3.332798 3.13643,-6.237428 4.86545,-8.91813 2.15106,-2.885763 -1.18914,1.339204 -1.75611,2.107673 -0.0472,0.06401 0.35833,-0.446228 0.55988,-0.107201 0.18725,0.314983 0.18962,0.990388 0.22476,1.399862 0.0325,1.792486 -0.27511,3.631375 0.0984,5.321086 0.10927,0.16696 0.20087,0.407011 0.32778,0.50088 0.81229,0.6008 1.8541,0.06938 2.65318,-0.251674 0.35941,-0.144405 2.07169,-0.944798 2.44232,-1.116867 1.99173,-0.883772 3.97133,-1.824183 5.92513,-3.036864 0.90605,-0.564467 1.89505,-1.230156 2.79688,-0.33247 0.46504,0.799288 0.66269,2.092476 0.90052,3.225099 0.0862,0.333983 0.17956,0.790837 0.33891,1.010748 0.55407,0.764683 1.36853,0.760372 1.99174,0.97301 0.37962,0.129527 0.75851,0.268859 1.13776,0.403289 2.04559,0.858954 4.08946,1.718725 6.17692,1.930209 1.71568,0.173818 2.07621,0.04453 3.7986,-0.139636 2.26579,-0.239337 4.50383,-1.03564 6.74575,-1.720911 0.85891,-0.173612 1.70391,-0.604457 2.56565,-0.710925 0.0783,0.02397 0.15989,0.01876 0.23502,0.07193 0.32543,0.230253 0.55652,0.884483 0.86579,1.18206 0.49467,0.475954 0.64483,0.389435 1.19129,0.472985 0.27424,-0.136155 0.5581,-0.203023 0.82274,-0.408466 0.32915,-0.255519 0.64335,-0.598419 0.94831,-0.966409 1.31214,-1.583354 2.61214,-3.213468 3.90032,-4.884383 0.33654,-0.436539 0.64775,-0.956713 0.97162,-1.435087 1.30158,-1.922523 0.65767,-0.989899 1.92316,-2.789888 1.04494,-1.404695 4.08961,-5.179537 -0.96622,1.190585 0,0 2.77245,-4.75322 2.77245,-4.75322 v 0 c -1.67783,2.030846 -3.39496,3.949156 -5.00197,6.238995 -0.63544,0.921438 -1.26665,1.856195 -1.90246,2.776485 -0.32963,0.477126 -1.35631,1.766631 -0.99331,1.417336 0.69349,-0.66733 1.33086,-1.57462 1.99197,-2.378305 0.28513,-0.346615 -0.56543,0.71642 -0.86393,1.007001 -0.2309,0.224766 -0.47933,0.355923 -0.71898,0.533882 -0.38322,0.01288 -0.67614,0.115152 -1.03855,-0.190667 -0.45083,-0.380442 -0.70821,-1.46568 -1.20185,-1.664449 -0.89841,-0.02537 -1.76928,0.570659 -2.66117,0.73292 -2.32036,0.840883 -4.62946,1.895755 -6.98509,2.193152 -1.57773,0.190442 -2.18073,0.353259 -3.75503,0.189169 -2.03731,-0.212346 -4.02731,-1.14768 -6.0123,-2.085662 -1.83474,-0.865579 -0.35942,-0.201234 -1.88767,-0.820373 -0.52169,-0.211354 -0.97142,-0.120851 -1.22507,-1.201007 -0.28517,-1.279795 -0.51424,-2.709325 -1.02758,-3.65677 -0.99625,-1.208877 -2.01507,-0.686802 -3.0604,0.01059 -1.97182,1.305332 -3.97038,2.329285 -5.99248,3.217756 -0.64727,0.305779 -1.75227,0.83879 -2.40444,1.10309 -0.8185,0.3317 -1.72241,0.734774 -2.55058,0.2995 -0.38431,-1.531974 0.0239,-3.43036 -0.11037,-5.069291 -0.0784,-0.821527 -0.0731,-1.424113 -0.35623,-2.061298 -0.20824,-0.468577 -0.53234,-0.726103 -0.82709,-0.396094 -2.54728,2.85207 -2.67451,3.098846 -4.21859,5.395028 -1.75939,2.863096 -3.43753,5.948601 -5.04506,9.194482 0,0 3.39027,-3.00275 3.39027,-3.00275 z" />
    <path
       style="fill:#ffd5d5;stroke:#00ffff;stroke-width:0.182578"
       id="path48"
       d="m 141.22656,90.742737 c -0.27591,0.277738 1.92872,-2.452349 1.4493,-1.829771 -0.67087,0.871191 -1.40348,1.55008 -2.02628,2.566561 -0.31517,0.514395 0.72279,-0.71283 1.09046,-1.039188 0.96611,-0.85757 1.11496,-0.906539 2.10149,-1.568122 1.26555,-0.710504 2.63257,-1.405966 3.91241,-0.480658 1.15668,1.141222 2.21124,2.652845 3.35918,3.831519 0.96488,0.953854 1.97675,1.656752 3.02943,2.00968 0.12747,0.02991 0.47334,0.120131 0.60857,0.117858 1.30077,-0.02185 2.61587,-0.414983 3.9114,-0.612825 1.72921,-0.26742 3.4675,-0.255506 5.19529,-0.571251 0.90428,-0.165251 1.28953,-0.316275 2.18066,-0.597766 1.98638,-0.822089 3.97503,-1.660911 5.90622,-2.950688 1.08327,-0.826138 2.11523,-1.909723 3.16288,-2.910158 0.58915,-0.619807 1.11901,-0.544309 1.70219,0.01976 0.92102,1.123926 2.01107,1.45184 3.03838,1.918903 1.97899,0.915223 3.97097,1.659438 5.8629,3.219519 0.70633,0.622485 1.2751,1.586889 1.74719,2.843266 0.34051,0.906211 0.59084,1.93091 0.93058,2.840945 0.79846,1.376244 1.59707,0.975024 2.45501,-0.03373 1.23215,-1.448723 2.44441,-2.970762 3.66661,-4.456146 0.48822,-0.642851 0.95748,-1.342517 1.44141,-1.999031 0,0 -3.40107,2.789981 -3.40107,2.789981 v 0 c -0.4663,0.657789 -0.92807,1.330873 -1.40905,1.941357 0.84386,-1.004621 1.69241,-1.992056 2.53158,-3.013864 0.18003,-0.219215 -0.36537,0.419778 -0.55374,0.605552 -0.38007,0.374843 -0.84126,0.828884 -1.27388,0.539753 -0.1126,-0.07526 -0.21031,-0.226396 -0.31547,-0.339593 -0.37823,-0.872212 -0.64335,-1.870866 -0.99627,-2.785962 -0.51421,-1.33332 -1.10866,-2.421107 -1.87133,-3.085327 -0.28076,-0.239713 -0.55608,-0.509672 -0.84227,-0.71914 -1.64835,-1.206455 -3.3977,-1.592869 -5.07622,-2.554317 -0.95956,-0.517639 -1.9577,-0.991566 -2.83486,-1.986957 -0.61143,-0.711645 -1.24148,-1.130821 -1.91983,-0.540655 -1.07956,0.983189 -2.11263,2.185336 -3.21121,3.082631 -1.9317,1.415923 -3.92676,2.366769 -5.93673,3.154413 -2.45677,0.85617 -4.94043,1.147257 -7.42738,1.339628 -1.41792,0.121607 -2.84091,0.342103 -4.25955,0.269271 -1.0564,-0.209685 -2.0823,-0.773816 -3.05498,-1.675392 -1.17443,-1.166558 -2.16689,-2.688209 -3.29347,-3.997885 -0.13624,-0.119695 -0.2663,-0.277006 -0.40871,-0.35909 -1.24687,-0.71868 -2.5755,0.06024 -3.78775,0.649433 -1.08556,0.688128 -2.22316,1.387766 -3.23033,2.50989 -1.88839,2.103927 -3.75201,4.333658 -5.58251,6.65811 0,0 3.42975,-2.800525 3.42975,-2.800525 z" />
    <path
       style="fill:#000000;stroke:#666666;stroke-width:0.201527"
       id="path41"
       d="m 14.745297,57.670108 c 0.54099,0.890465 1.12692,1.755185 1.64624,2.65737 0.45111,0.657312 0.8151,1.359741 1.25473,2.023621 0.43322,0.689799 0.9148,1.358892 1.2064,2.116362 0.32403,0.733322 0.67437,1.452719 1.01604,2.179165 0.59076,1.15061 0.72597,2.531347 1.61732,3.527508 2.11273,1.235426 4.67919,-1.985964 6.132,-2.87088 0.14719,-0.08965 0.57795,-1.025496 0.68107,-1.204888 0.5938,-1.213641 1.2955,-2.377785 1.90107,-3.58516 0.76117,-1.25055 1.39114,-2.566722 2.06214,-3.861347 0.74936,-1.637152 1.63503,-3.21194 2.43717,-4.825583 0.64578,-1.230521 1.25265,-2.473476 1.90682,-3.700354 0.56819,-0.74041 0.93259,-1.589129 1.38425,-2.391186 0.38703,-0.785142 0.89246,-1.486229 1.18568,-2.312817 0.0356,-0.137411 0.071,-0.274821 0.1066,-0.412232 0,0 -5.51702,2.479601 -5.51702,2.479601 v 0 c -0.0421,0.122219 -0.0842,0.244439 -0.12633,0.36666 -0.34928,0.7784 -0.85041,1.480843 -1.21451,2.253507 -0.41984,0.803803 -0.86198,1.595144 -1.33073,2.374405 -0.64255,1.222446 -1.2271,2.469471 -1.85992,3.696416 -0.79454,1.607683 -1.62789,3.197731 -2.42229,4.805505 -0.68745,1.296343 -1.39135,2.584623 -2.08941,3.875869 -0.64411,1.20242 -1.31167,2.394885 -1.9808,3.584678 -0.14511,0.237895 -0.32889,0.563665 -0.51614,0.78065 -0.0866,0.10031 -0.40926,0.337908 -0.28901,0.275994 1.68494,-0.867552 6.1804,-3.829479 4.77294,-2.373208 -0.91513,-0.581442 -1.10067,-2.368676 -1.5541,-3.276865 -0.2874,-0.743714 -0.6028,-1.480035 -0.95897,-2.196686 -0.32918,-0.784853 -0.8348,-1.475375 -1.25684,-2.216552 -0.42849,-0.658661 -0.81765,-1.337898 -1.27952,-1.976572 -0.53532,-0.90088 -1.14368,-1.765228 -1.59943,-2.706321 0,0 -5.31545,2.91334 -5.31545,2.91334 z" />
    <path
       style="fill:#000000;stroke:#666666;stroke-width:0.201527"
       id="path41-5"
       d="m 14.714044,90.012385 c 0.54099,0.890465 1.12692,1.755185 1.64624,2.65737 0.45111,0.657312 0.8151,1.359741 1.25473,2.023621 0.43322,0.689799 0.9148,1.358892 1.2064,2.116362 0.32403,0.733322 0.67437,1.452719 1.01604,2.179165 0.59076,1.150607 0.72597,2.531347 1.61732,3.527507 2.11273,1.23542 4.679191,-1.98596 6.132001,-2.870879 0.14719,-0.08965 0.57795,-1.025496 0.68107,-1.204888 0.593799,-1.213641 1.2955,-2.377785 1.901069,-3.58516 0.76117,-1.25055 1.39114,-2.566722 2.062141,-3.861347 0.74936,-1.637152 1.63503,-3.21194 2.43717,-4.825583 0.64578,-1.230521 1.25265,-2.473476 1.90682,-3.700354 0.56819,-0.74041 0.93259,-1.589129 1.38425,-2.391186 0.38703,-0.785142 0.89246,-1.486229 1.18568,-2.312817 0.0356,-0.137411 0.071,-0.274821 0.1066,-0.412232 0,0 -5.51702,2.479601 -5.51702,2.479601 v 0 c -0.0421,0.122219 -0.0842,0.244439 -0.12633,0.366659 -0.34928,0.7784 -0.85041,1.480844 -1.21451,2.253508 -0.41984,0.803803 -0.86198,1.595144 -1.33073,2.374405 -0.64255,1.222446 -1.2271,2.469471 -1.85992,3.696416 -0.79454,1.607683 -1.62789,3.197731 -2.42229,4.805505 -0.68745,1.296343 -1.39135,2.584623 -2.08941,3.875869 -0.64411,1.20242 -1.311671,2.394885 -1.980801,3.584683 -0.14511,0.23789 -0.32889,0.56366 -0.51614,0.78065 -0.0866,0.10031 -0.40926,0.3379 -0.28901,0.27599 1.68494,-0.86755 6.180401,-3.82948 4.772941,-2.373209 -0.91513,-0.581442 -1.10067,-2.368676 -1.5541,-3.276865 -0.2874,-0.743714 -0.6028,-1.480035 -0.958971,-2.196686 -0.32918,-0.784853 -0.834799,-1.475375 -1.25684,-2.216552 -0.42849,-0.658661 -0.81765,-1.337898 -1.27952,-1.976572 -0.53532,-0.90088 -1.14368,-1.765228 -1.59943,-2.706321 0,0 -5.31545,2.91334 -5.31545,2.91334 z" />
    <ellipse
       style="fill:#800000;stroke:#00ffff;stroke-width:0.34871"
       id="path11-7"
       cx="88.077042"
       cy="121.41219"
       rx="39.645435"
       ry="13.71627" />
    <text
       xml:space="preserve"
       style="font-size:16.1235px;line-height:1.25;font-family:'Arial Rounded MT Bold';-inkscape-font-specification:'Arial Rounded MT Bold, Normal';fill:#ffe6d5;stroke-width:1.00772"
       x="54.092709"
       y="133.68776"
       id="text15-4"
       transform="scale(1.0540301,0.94873951)"><tspan
         sodipodi:role="line"
         id="tspan13-5"
         x="54.092709"
         y="133.68776"
         style="fill:#ffe6d5;stroke-width:1.00772">864124</tspan></text>
    <ellipse
       style="fill:#800000;stroke:#00ffff;stroke-width:0.347554"
       id="path11-5-4"
       cx="87.812447"
       cy="153.75447"
       rx="39.381432"
       ry="13.716849" />
    <text
       xml:space="preserve"
       style="font-size:16.1235px;line-height:1.25;font-family:'Arial Rounded MT Bold';-inkscape-font-specification:'Arial Rounded MT Bold, Normal';fill:#ffe6d5;stroke-width:1.00772"
       x="56.234207"
       y="167.7775"
       id="text15-5-5"
       transform="scale(1.0540301,0.94873951)"><tspan
         sodipodi:role="line"
         id="tspan13-2-4"
         x="56.234207"
         y="167.7775"
         style="fill:#ffe6d5;stroke-width:1.00772">133700</tspan></text>
    <path
       style="fill:#ffd5d5;stroke:#00ffff;stroke-width:0.180939"
       id="path46-4"
       d="m 141.13575,125.69196 c 1.46444,-3.3328 3.13643,-6.23743 4.86545,-8.91813 2.15106,-2.88576 -1.18914,1.3392 -1.75611,2.10767 -0.0472,0.064 0.35833,-0.44622 0.55988,-0.1072 0.18725,0.31499 0.18962,0.99039 0.22476,1.39986 0.0325,1.79249 -0.27511,3.63138 0.0984,5.32109 0.10927,0.16696 0.20087,0.40701 0.32778,0.50088 0.81229,0.6008 1.8541,0.0694 2.65318,-0.25167 0.35941,-0.14441 2.07169,-0.9448 2.44232,-1.11687 1.99173,-0.88377 3.97133,-1.82418 5.92513,-3.03686 0.90605,-0.56447 1.89505,-1.23016 2.79688,-0.33247 0.46504,0.79928 0.66269,2.09247 0.90052,3.22509 0.0862,0.33399 0.17956,0.79084 0.33891,1.01075 0.55407,0.76469 1.36853,0.76037 1.99174,0.97301 0.37962,0.12953 0.75851,0.26886 1.13776,0.40329 2.0456,0.85896 4.08946,1.71873 6.17692,1.93021 1.71568,0.17382 2.07621,0.0445 3.7986,-0.13964 2.26579,-0.23933 4.50383,-1.03564 6.74575,-1.72091 0.85891,-0.17361 1.70391,-0.60445 2.56565,-0.71092 0.0783,0.024 0.15989,0.0188 0.23502,0.0719 0.32543,0.23025 0.55653,0.88448 0.86579,1.18206 0.49467,0.47595 0.64483,0.38943 1.19129,0.47298 0.27424,-0.13615 0.5581,-0.20302 0.82274,-0.40846 0.32915,-0.25552 0.64335,-0.59842 0.94831,-0.96641 1.31214,-1.58336 2.61214,-3.21347 3.90032,-4.88438 0.33654,-0.43654 0.64775,-0.95672 0.97162,-1.43509 1.30158,-1.92252 0.65767,-0.9899 1.92316,-2.78989 1.04494,-1.40469 4.08961,-5.17954 -0.96622,1.19059 0,0 2.77245,-4.75322 2.77245,-4.75322 v 0 c -1.67783,2.03084 -3.39496,3.94915 -5.00197,6.23899 -0.63544,0.92144 -1.26665,1.8562 -1.90246,2.77649 -0.32963,0.47712 -1.35631,1.76663 -0.99331,1.41733 0.69349,-0.66733 1.33086,-1.57462 1.99197,-2.3783 0.28513,-0.34662 -0.56543,0.71642 -0.86393,1.007 -0.2309,0.22476 -0.47933,0.35592 -0.71898,0.53388 -0.38322,0.0129 -0.67614,0.11515 -1.03855,-0.19067 -0.45083,-0.38044 -0.70821,-1.46568 -1.20185,-1.66445 -0.89841,-0.0254 -1.76928,0.57066 -2.66117,0.73292 -2.32035,0.84089 -4.62946,1.89576 -6.98509,2.19316 -1.57773,0.19044 -2.18073,0.35325 -3.75503,0.18916 -2.03731,-0.21234 -4.02731,-1.14768 -6.0123,-2.08566 -1.83474,-0.86558 -0.35942,-0.20123 -1.88767,-0.82037 -0.52169,-0.21135 -0.97142,-0.12085 -1.22507,-1.20101 -0.28517,-1.27979 -0.51424,-2.70932 -1.02758,-3.65677 -0.99625,-1.20887 -2.01507,-0.6868 -3.0604,0.0106 -1.97182,1.30533 -3.97038,2.32929 -5.99248,3.21776 -0.64727,0.30578 -1.75227,0.83879 -2.40444,1.10309 -0.8185,0.3317 -1.72241,0.73477 -2.55058,0.2995 -0.38431,-1.53198 0.0239,-3.43036 -0.11037,-5.06929 -0.0784,-0.82153 -0.0731,-1.42412 -0.35623,-2.0613 -0.20824,-0.46858 -0.53234,-0.7261 -0.82709,-0.39609 -2.54728,2.85207 -2.67451,3.09884 -4.21859,5.39502 -1.75939,2.8631 -3.43753,5.9486 -5.04506,9.19449 0,0 3.39027,-3.00275 3.39027,-3.00275 z" />
    <path
       style="fill:#ffd5d5;stroke:#00ffff;stroke-width:0.182578"
       id="path48-0"
       d="m 141.23145,154.46265 c -0.27591,0.27774 1.92872,-2.45235 1.4493,-1.82977 -0.67087,0.87119 -1.40348,1.55008 -2.02628,2.56656 -0.31517,0.5144 0.72279,-0.71283 1.09046,-1.03919 0.96611,-0.85757 1.11496,-0.90654 2.10149,-1.56812 1.26555,-0.7105 2.63257,-1.40596 3.91241,-0.48066 1.15668,1.14123 2.21124,2.65285 3.35918,3.83153 0.96488,0.95385 1.97675,1.65675 3.02943,2.00968 0.12747,0.0299 0.47334,0.12012 0.60857,0.11785 1.30077,-0.0219 2.61587,-0.41498 3.9114,-0.61282 1.72921,-0.26742 3.4675,-0.25551 5.19529,-0.57125 0.90428,-0.16525 1.28953,-0.31628 2.18066,-0.59777 1.98638,-0.82209 3.97503,-1.66091 5.90622,-2.95069 1.08327,-0.82614 2.11523,-1.90972 3.16288,-2.91016 0.58915,-0.6198 1.11901,-0.54431 1.70219,0.0198 0.92102,1.12393 2.01107,1.45184 3.03838,1.9189 1.97899,0.91523 3.97097,1.65944 5.8629,3.21952 0.70633,0.62249 1.2751,1.58689 1.74719,2.84327 0.34051,0.90621 0.59084,1.93091 0.93058,2.84095 0.79846,1.37624 1.59707,0.97502 2.45501,-0.0337 1.23216,-1.44872 2.44441,-2.97076 3.66662,-4.45615 0.48821,-0.64285 0.95747,-1.34251 1.4414,-1.99903 0,0 -3.40107,2.78998 -3.40107,2.78998 v 0 c -0.4663,0.65779 -0.92807,1.33088 -1.40905,1.94136 0.84386,-1.00462 1.69241,-1.99206 2.53159,-3.01387 0.18002,-0.21921 -0.36537,0.41978 -0.55375,0.60556 -0.38006,0.37484 -0.84126,0.82888 -1.27388,0.53975 -0.1126,-0.0753 -0.21031,-0.2264 -0.31547,-0.33959 -0.37822,-0.87221 -0.64335,-1.87087 -0.99627,-2.78597 -0.5142,-1.33331 -1.10865,-2.4211 -1.87133,-3.08532 -0.28075,-0.23972 -0.55608,-0.50967 -0.84226,-0.71914 -1.64835,-1.20646 -3.39771,-1.59287 -5.07623,-2.55432 -0.95956,-0.51764 -1.9577,-0.99157 -2.83486,-1.98696 -0.61143,-0.71164 -1.24148,-1.13082 -1.91983,-0.54065 -1.07956,0.98319 -2.11263,2.18533 -3.21121,3.08263 -1.9317,1.41592 -3.92676,2.36677 -5.93673,3.15441 -2.45677,0.85617 -4.94043,1.14726 -7.42738,1.33963 -1.41792,0.12161 -2.84091,0.3421 -4.25955,0.26927 -1.0564,-0.20968 -2.0823,-0.77381 -3.05498,-1.67539 -1.17443,-1.16656 -2.16688,-2.68821 -3.29347,-3.99788 -0.13624,-0.1197 -0.2663,-0.27701 -0.40871,-0.35909 -1.24687,-0.71868 -2.5755,0.0602 -3.78775,0.64943 -1.08556,0.68813 -2.22315,1.38776 -3.23033,2.50989 -1.88839,2.10393 -3.75201,4.33365 -5.58251,6.65811 0,0 3.42975,-2.80053 3.42975,-2.80053 z" />
    <path
       style="fill:#000000;stroke:#666666;stroke-width:0.201527"
       id="path41-2"
       d="m 14.750189,121.39002 c 0.54099,0.89047 1.12692,1.75519 1.64624,2.65737 0.45111,0.65732 0.8151,1.35974 1.254729,2.02362 0.433221,0.6898 0.914801,1.3589 1.206401,2.11637 0.32403,0.73332 0.67437,1.45272 1.01604,2.17916 0.59076,1.15061 0.72597,2.53135 1.61732,3.52751 2.11273,1.23543 4.67919,-1.98596 6.132,-2.87088 0.14719,-0.0897 0.57795,-1.0255 0.681069,-1.20489 0.593801,-1.21364 1.295501,-2.37778 1.901071,-3.58516 0.76117,-1.25055 1.39114,-2.56672 2.06214,-3.86135 0.74936,-1.63715 1.63503,-3.21194 2.43717,-4.82558 0.64578,-1.23052 1.25265,-2.47347 1.90682,-3.70035 0.56819,-0.74041 0.93259,-1.58913 1.38425,-2.39119 0.38703,-0.78514 0.89246,-1.48623 1.18568,-2.31281 0.0356,-0.13742 0.071,-0.27483 0.1066,-0.41224 0,0 -5.51702,2.4796 -5.51702,2.4796 v 0 c -0.0421,0.12222 -0.0842,0.24444 -0.12633,0.36666 -0.34928,0.7784 -0.85041,1.48085 -1.21451,2.25351 -0.41984,0.8038 -0.86198,1.59515 -1.33073,2.37441 -0.64255,1.22244 -1.2271,2.46947 -1.85992,3.69641 -0.794541,1.60768 -1.62789,3.19773 -2.422291,4.80551 -0.687449,1.29634 -1.391349,2.58462 -2.089409,3.87587 -0.64411,1.20242 -1.31167,2.39488 -1.9808,3.58467 -0.14511,0.2379 -0.32889,0.56367 -0.51614,0.78065 -0.0866,0.10031 -0.40926,0.33791 -0.28901,0.276 1.68494,-0.86755 6.1804,-3.82948 4.77294,-2.37321 -0.91513,-0.58144 -1.10067,-2.36868 -1.554101,-3.27687 -0.287399,-0.74371 -0.602799,-1.48003 -0.958969,-2.19668 -0.32918,-0.78485 -0.8348,-1.47538 -1.25684,-2.21655 -0.42849,-0.65866 -0.81765,-1.3379 -1.27952,-1.97658 -0.53532,-0.90088 -1.14368,-1.76522 -1.59943,-2.70632 0,0 -5.31545,2.91334 -5.31545,2.91334 z" />
    <path
       style="fill:#000000;stroke:#666666;stroke-width:0.201527"
       id="path41-5-8"
       d="m 14.718936,153.7323 c 0.54099,0.89047 1.12692,1.75519 1.64624,2.65737 0.45111,0.65731 0.8151,1.35974 1.25473,2.02362 0.43322,0.6898 0.9148,1.35889 1.2064,2.11636 0.32403,0.73333 0.67437,1.45272 1.01604,2.17917 0.59076,1.15061 0.72597,2.53135 1.61732,3.52751 2.11273,1.23542 4.67919,-1.98596 6.132001,-2.87088 0.14719,-0.0897 0.57795,-1.0255 0.68107,-1.20489 0.593798,-1.21364 1.2955,-2.37779 1.901068,-3.58516 0.76117,-1.25055 1.39114,-2.56672 2.062142,-3.86135 0.74936,-1.63715 1.63503,-3.21194 2.43717,-4.82558 0.64578,-1.23052 1.25265,-2.47348 1.90682,-3.70036 0.56819,-0.74041 0.93259,-1.58912 1.38425,-2.39118 0.38703,-0.78514 0.89246,-1.48623 1.18568,-2.31282 0.0356,-0.13741 0.071,-0.27482 0.1066,-0.41223 0,0 -5.51702,2.4796 -5.51702,2.4796 v 0 c -0.0421,0.12222 -0.0842,0.24444 -0.12633,0.36666 -0.34928,0.7784 -0.85041,1.48084 -1.21451,2.25351 -0.41984,0.8038 -0.86198,1.59514 -1.330731,2.3744 -0.642549,1.22245 -1.227099,2.46948 -1.859919,3.69642 -0.79454,1.60768 -1.627891,3.19773 -2.42229,4.8055 -0.687451,1.29635 -1.39135,2.58463 -2.08941,3.87587 -0.64411,1.20242 -1.311671,2.39489 -1.980801,3.58469 -0.14511,0.23789 -0.32889,0.56366 -0.51614,0.78065 -0.0866,0.10031 -0.40926,0.3379 -0.28901,0.27599 1.68494,-0.86755 6.180401,-3.82948 4.77294,-2.37321 -0.91513,-0.58145 -1.100669,-2.36868 -1.554099,-3.27687 -0.287401,-0.74371 -0.6028,-1.48003 -0.958971,-2.19668 -0.32918,-0.78486 -0.834799,-1.47538 -1.25684,-2.21656 -0.42849,-0.65866 -0.81765,-1.33789 -1.27952,-1.97657 -0.53532,-0.90088 -1.14368,-1.76523 -1.59943,-2.70632 0,0 -5.31545,2.91334 -5.31545,2.91334 z" />
    <ellipse
       style="fill:#800000;stroke:#00ffff;stroke-width:0.34871"
       id="path11-2"
       cx="87.547874"
       cy="185.44136"
       rx="39.645435"
       ry="13.71627" />
    <text
       xml:space="preserve"
       style="font-size:16.1235px;line-height:1.25;font-family:'Arial Rounded MT Bold';-inkscape-font-specification:'Arial Rounded MT Bold, Normal';fill:#ffe6d5;stroke-width:1.00772"
       x="53.590668"
       y="201.17644"
       id="text15-8"
       transform="scale(1.0540301,0.94873951)"><tspan
         sodipodi:role="line"
         id="tspan13-9"
         x="53.590668"
         y="201.17644"
         style="fill:#ffe6d5;stroke-width:1.00772">422442</tspan></text>
    <path
       style="fill:#ffd5d5;stroke:#00ffff;stroke-width:0.180939"
       id="path46-9"
       d="m 140.60659,189.72113 c 1.46444,-3.3328 3.13643,-6.23743 4.86545,-8.91813 2.15106,-2.88576 -1.18914,1.3392 -1.75611,2.10767 -0.0472,0.064 0.35833,-0.44623 0.55988,-0.1072 0.18725,0.31498 0.18962,0.99039 0.22476,1.39986 0.0325,1.79249 -0.27511,3.63138 0.0984,5.32109 0.10927,0.16696 0.20087,0.40701 0.32778,0.50088 0.81229,0.6008 1.8541,0.0694 2.65318,-0.25168 0.35941,-0.1444 2.07169,-0.94479 2.44232,-1.11686 1.99173,-0.88378 3.97133,-1.82419 5.92513,-3.03687 0.90605,-0.56446 1.89505,-1.23015 2.79688,-0.33247 0.46504,0.79929 0.66269,2.09248 0.90052,3.2251 0.0862,0.33398 0.17956,0.79084 0.33891,1.01075 0.55407,0.76468 1.36853,0.76037 1.99174,0.97301 0.37962,0.12953 0.75851,0.26886 1.13776,0.40329 2.04559,0.85895 4.08946,1.71872 6.17692,1.93021 1.71568,0.17382 2.07621,0.0445 3.7986,-0.13964 2.26579,-0.23934 4.50383,-1.03564 6.74575,-1.72091 0.85891,-0.17361 1.70391,-0.60446 2.56565,-0.71092 0.0783,0.024 0.15989,0.0188 0.23502,0.0719 0.32543,0.23025 0.55652,0.88448 0.86579,1.18206 0.49467,0.47595 0.64483,0.38943 1.19129,0.47298 0.27424,-0.13615 0.5581,-0.20302 0.82274,-0.40847 0.32915,-0.25551 0.64335,-0.59841 0.94831,-0.9664 1.31214,-1.58336 2.61214,-3.21347 3.90032,-4.88439 0.33654,-0.43654 0.64775,-0.95671 0.97162,-1.43508 1.30158,-1.92253 0.65767,-0.9899 1.92316,-2.78989 1.04494,-1.4047 4.08961,-5.17954 -0.96622,1.19058 0,0 2.77245,-4.75322 2.77245,-4.75322 v 0 c -1.67783,2.03085 -3.39496,3.94916 -5.00197,6.239 -0.63544,0.92144 -1.26665,1.85619 -1.90246,2.77648 -0.32963,0.47713 -1.35631,1.76663 -0.99331,1.41734 0.69349,-0.66733 1.33086,-1.57462 1.99197,-2.37831 0.28513,-0.34661 -0.56543,0.71642 -0.86393,1.007 -0.2309,0.22477 -0.47933,0.35593 -0.71898,0.53389 -0.38322,0.0129 -0.67614,0.11515 -1.03855,-0.19067 -0.45083,-0.38044 -0.70821,-1.46568 -1.20185,-1.66445 -0.89841,-0.0254 -1.76928,0.57066 -2.66117,0.73292 -2.32036,0.84088 -4.62946,1.89576 -6.98509,2.19315 -1.57773,0.19044 -2.18073,0.35326 -3.75503,0.18917 -2.03731,-0.21234 -4.02731,-1.14768 -6.0123,-2.08566 -1.83474,-0.86558 -0.35942,-0.20123 -1.88767,-0.82037 -0.52169,-0.21136 -0.97142,-0.12085 -1.22507,-1.20101 -0.28517,-1.2798 -0.51424,-2.70933 -1.02758,-3.65677 -0.99625,-1.20888 -2.01507,-0.6868 -3.0604,0.0106 -1.97182,1.30533 -3.97038,2.32929 -5.99248,3.21776 -0.64727,0.30578 -1.75227,0.83879 -2.40444,1.10309 -0.8185,0.3317 -1.72241,0.73477 -2.55058,0.2995 -0.38431,-1.53198 0.0239,-3.43036 -0.11037,-5.06929 -0.0784,-0.82153 -0.0731,-1.42412 -0.35623,-2.0613 -0.20824,-0.46858 -0.53234,-0.72611 -0.82709,-0.3961 -2.54728,2.85207 -2.67451,3.09885 -4.21859,5.39503 -1.75939,2.8631 -3.43753,5.9486 -5.04506,9.19448 0,0 3.39027,-3.00275 3.39027,-3.00275 z" />
    <path
       style="fill:#000000;stroke:#666666;stroke-width:0.264583"
       id="path124"
       d="m 27.73262,206.71168 c -1.804279,0.17964 -3.515969,1.10385 -5.10211,1.94321 0.101702,1.36569 -7.142622,3.46387 -9.142872,5.79767 -0.384341,0.44844 -0.428929,0.70684 -0.639015,1.25163 -0.35184,1.25065 -0.546546,2.57589 -0.394864,3.87145 0.277443,1.03168 0.876306,1.66615 1.852548,2.05488 0.995186,0.23536 2.017634,0.29149 3.0255,0.46931 0.905874,0.24801 1.782468,0.55913 2.716539,0.69041 3.578053,0.0541 6.183014,-3.26176 9.213258,-4.90578 -2.00956,1.16878 -4.024175,2.32891 -6.028679,3.50634 -0.195202,0.11466 0.401146,-0.20999 0.600252,-0.31773 0.371713,-0.20114 0.74422,-0.40114 1.109276,-0.61412 2.396025,-1.39786 4.786847,-2.80462 7.180837,-4.20596 0.178543,-0.10451 0.357838,-0.20773 0.53676,-0.31159 0.152821,-0.12134 0.30053,-0.24941 0.458467,-0.36402 0.288677,-0.20946 0.579933,-0.41586 0.879793,-0.60898 0.146701,-0.0945 0.607044,-0.34443 0.456287,-0.25657 -7.181212,4.18516 -9.908804,5.73166 0.88537,-0.46014 0.907537,-0.84586 0.409609,-1.97824 0.0663,-2.97266 -0.459992,-1.0209 -0.876414,-2.0127 -1.67535,-2.81266 -0.759328,-0.71737 -1.773071,-0.90608 -2.728642,-1.22064 -0.855303,-0.2053 -1.679409,-0.51313 -2.526337,-0.74637 -0.558327,-0.12902 -1.129808,-0.17185 -1.698996,-0.22012 0,0 -6.334615,4.53509 -6.334615,4.53509 v 0 c 0.532996,0.0291 1.066855,0.0559 1.59554,0.13451 0.854085,0.17292 1.6342,0.54762 2.493808,0.694 0.858396,0.27589 1.784435,0.40652 2.540542,0.91852 0.73578,0.68515 1.107718,1.55648 1.51148,2.46852 0.2731,0.89868 0.427929,1.55905 -0.539874,2.0246 2.094381,-1.19946 8.39547,-4.76593 6.283145,-3.59836 -3.111222,1.71969 -6.080842,3.28066 -8.924227,5.28882 -2.532694,1.60124 -0.432114,0.26293 5.583632,-3.18012 0.182708,-0.10457 -0.357664,0.22239 -0.541195,0.32551 -1.43547,0.80652 0.304695,-0.23104 -1.154176,0.65243 -2.425051,1.38419 -4.855892,2.75822 -7.283838,4.13733 -0.142026,0.0917 -0.77393,0.50105 -0.967562,0.62187 -0.122678,0.0766 -0.496776,0.29614 -0.370682,0.22536 14.721961,-8.26414 7.917682,-3.88739 5.716677,-3.33815 -0.919829,0.14664 -1.807723,-0.27713 -2.664755,-0.56666 -0.982858,-0.16536 -1.94593,-0.37155 -2.945724,-0.40167 -0.765504,-0.15436 -1.21255,-0.45277 -1.40141,-1.25602 -0.0854,-1.17386 0.08684,-2.3804 0.549666,-3.46537 1.588237,-2.50614 8.452509,-5.48067 -3.269433,0.99069 1.470586,-0.90338 3.075178,-1.64588 4.722135,-2.16015 0,0 6.356547,-4.61831 6.356547,-4.61831 z" />
    <path
       style="fill:#000000;stroke:#666666;stroke-width:0.201527"
       id="path41-5-8-0"
       d="m 14.714044,183.0695 c 0.54099,0.89047 1.12692,1.75519 1.64624,2.65737 0.45111,0.65731 0.8151,1.35974 1.25473,2.02362 0.43322,0.6898 0.9148,1.35889 1.2064,2.11636 0.32403,0.73333 0.67437,1.45272 1.01604,2.17917 0.59076,1.15061 0.72597,2.53135 1.61732,3.52751 2.11273,1.23542 4.679189,-1.98596 6.132,-2.87088 0.14719,-0.0897 0.57795,-1.0255 0.68107,-1.20489 0.593798,-1.21364 1.2955,-2.37779 1.901068,-3.58516 0.76117,-1.25055 1.39114,-2.56672 2.062142,-3.86135 0.74936,-1.63715 1.63503,-3.21194 2.437171,-4.82558 0.645779,-1.23052 1.252649,-2.47348 1.90682,-3.70036 0.568189,-0.74041 0.932589,-1.58912 1.38425,-2.39118 0.387029,-0.78514 0.89246,-1.48623 1.18568,-2.31282 0.0356,-0.13741 0.071,-0.27482 0.1066,-0.41223 0,0 -5.517021,2.4796 -5.517021,2.4796 v 0 c -0.0421,0.12222 -0.0842,0.24444 -0.12633,0.36666 -0.34928,0.7784 -0.85041,1.48084 -1.21451,2.25351 -0.419839,0.8038 -0.86198,1.59514 -1.330731,2.3744 -0.642549,1.22245 -1.227099,2.46948 -1.859919,3.69642 -0.79454,1.60768 -1.627891,3.19773 -2.42229,4.8055 -0.687451,1.29635 -1.39135,2.58463 -2.08941,3.87587 -0.644109,1.20242 -1.31167,2.39489 -1.9808,3.58469 -0.14511,0.23789 -0.32889,0.56366 -0.51614,0.78065 -0.0866,0.10031 -0.40926,0.3379 -0.28901,0.27599 1.68494,-0.86755 6.1804,-3.82948 4.772939,-2.37321 -0.91513,-0.58145 -1.100669,-2.36868 -1.554099,-3.27687 -0.287401,-0.74371 -0.602799,-1.48003 -0.95897,-2.19668 -0.32918,-0.78486 -0.834799,-1.47538 -1.25684,-2.21656 -0.42849,-0.65866 -0.81765,-1.33789 -1.27952,-1.97657 -0.53532,-0.90088 -1.14368,-1.76523 -1.59943,-2.70632 0,0 -5.31545,2.91334 -5.31545,2.91334 z" />
    <path
       style="fill:#ffd5d5;stroke:#00ffff;stroke-width:0.284469"
       id="path46-4-4"
       d="m 59.330057,217.53395 c 3.619728,-3.3328 7.752467,-6.23743 12.02617,-8.91813 5.31688,-2.88576 -2.939255,1.3392 -4.340663,2.10767 -0.116666,0.064 0.885702,-0.44622 1.383883,-0.1072 0.462835,0.31499 0.468693,0.99039 0.55555,1.39986 0.08033,1.79249 -0.680002,3.63138 0.243221,5.32109 0.270088,0.16696 0.4965,0.40701 0.810189,0.50088 2.007777,0.6008 4.58287,0.0694 6.557995,-0.25167 0.888371,-0.14441 5.120697,-0.9448 6.036801,-1.11687 4.923057,-0.88377 9.816131,-1.82418 14.645433,-3.03686 2.239528,-0.56447 4.684084,-1.23016 6.913184,-0.33247 1.14946,0.79928 1.638,2.09247 2.22586,3.22509 0.21307,0.33399 0.44383,0.79084 0.8377,1.01075 1.36952,0.76469 3.38266,0.76037 4.92308,0.97301 0.93833,0.12953 1.87485,0.26886 2.81226,0.40329 5.05621,0.85896 10.10812,1.71873 15.26779,1.93021 4.24073,0.17382 5.13187,0.0445 9.38919,-0.13964 5.60046,-0.23933 11.13234,-1.03564 16.6738,-1.72091 2.12301,-0.17361 4.21164,-0.60445 6.34164,-0.71092 0.19354,0.024 0.39521,0.0188 0.58091,0.0719 0.80438,0.23025 1.3756,0.88448 2.14002,1.18206 1.2227,0.47595 1.59385,0.38943 2.94457,0.47298 0.67785,-0.13615 1.37948,-0.20302 2.0336,-0.40846 0.81358,-0.25552 1.5902,-0.59842 2.34399,-0.96641 3.24328,-1.58336 6.45655,-3.21347 9.64061,-4.88438 0.83184,-0.43654 1.60107,-0.95672 2.4016,-1.43509 3.21718,-1.92252 1.62559,-0.9899 4.75357,-2.78989 2.58283,-1.40469 10.10849,-5.17954 -2.38826,1.19059 0,0 6.8528,-4.75322 6.8528,-4.75322 v 0 c -4.14717,2.03084 -8.39148,3.94915 -12.36361,6.23899 -1.57065,0.92144 -3.13084,1.8562 -4.7024,2.77649 -0.81477,0.47712 -3.35246,1.76663 -2.45522,1.41733 1.71414,-0.66733 3.28956,-1.57462 4.92365,-2.3783 0.70477,-0.34662 -1.3976,0.71642 -2.13541,1.007 -0.57073,0.22476 -1.18479,0.35592 -1.77714,0.53388 -0.94723,0.0129 -1.67125,0.11515 -2.56704,-0.19067 -1.11434,-0.38044 -1.75051,-1.46568 -2.97067,-1.66445 -2.22064,-0.0254 -4.37321,0.57066 -6.57774,0.73292 -5.73532,0.84089 -11.44286,1.89576 -17.26539,2.19316 -3.89975,0.19044 -5.39022,0.35325 -9.28149,0.18916 -5.03572,-0.21234 -9.9545,-1.14768 -14.8609,-2.08566 -4.53501,-0.86558 -0.88839,-0.20123 -4.66584,-0.82037 -1.28949,-0.21135 -2.40111,-0.12085 -3.02807,-1.20101 -0.70487,-1.27979 -1.27107,-2.70932 -2.53992,-3.65677 -2.46248,-1.20887 -4.98074,-0.6868 -7.56454,0.0106 -4.873841,1.30533 -9.813779,2.32929 -14.811903,3.21776 -1.599888,0.30578 -4.331171,0.83879 -5.943171,1.10309 -2.023127,0.3317 -4.257365,0.73477 -6.304393,0.2995 -0.949918,-1.53198 0.05907,-3.43036 -0.272807,-5.06929 -0.193785,-0.82153 -0.180685,-1.42412 -0.880511,-2.0613 -0.514717,-0.46858 -1.315811,-0.7261 -2.044359,-0.39609 -6.296236,2.85207 -6.610717,3.09884 -10.427295,5.39502 -4.34877,2.8631 -8.496711,5.9486 -12.470121,9.19449 0,0 8.379896,-3.00275 8.379896,-3.00275 z" />
    <path
       style="fill:#000000;stroke:#666666;stroke-width:0.264583"
       id="path124-5"
       d="m 27.416951,234.53677 c -1.804279,0.17964 -3.515969,1.10385 -5.10211,1.94321 0.101702,1.36569 -7.142622,3.46387 -9.142872,5.79767 -0.384341,0.44844 -0.428929,0.70684 -0.639015,1.25163 -0.35184,1.25065 -0.546546,2.57589 -0.394864,3.87145 0.277443,1.03168 0.876306,1.66615 1.852548,2.05488 0.995186,0.23536 2.017634,0.29149 3.0255,0.46931 0.905874,0.24801 1.782468,0.55913 2.716539,0.69041 3.578053,0.0541 6.183014,-3.26176 9.213258,-4.90578 -2.00956,1.16878 -4.024175,2.32891 -6.028679,3.50634 -0.195202,0.11466 0.401146,-0.20999 0.600252,-0.31773 0.371713,-0.20114 0.74422,-0.40114 1.109276,-0.61412 2.396025,-1.39786 4.786847,-2.80462 7.180837,-4.20596 0.178543,-0.10451 0.357838,-0.20773 0.53676,-0.31159 0.152821,-0.12134 0.30053,-0.24941 0.458467,-0.36402 0.288677,-0.20946 0.579933,-0.41586 0.879793,-0.60898 0.146701,-0.0945 0.607044,-0.34443 0.456287,-0.25657 -7.181212,4.18516 -9.908804,5.73166 0.88537,-0.46014 0.907537,-0.84586 0.40961,-1.97824 0.0663,-2.97266 -0.459992,-1.0209 -0.876414,-2.0127 -1.67535,-2.81266 -0.759328,-0.71737 -1.773071,-0.90608 -2.728642,-1.22064 -0.855303,-0.2053 -1.679409,-0.51313 -2.526337,-0.74637 -0.558327,-0.12902 -1.129808,-0.17185 -1.698996,-0.22012 0,0 -6.334615,4.53509 -6.334615,4.53509 v 0 c 0.532996,0.0291 1.066855,0.0559 1.59554,0.13451 0.854085,0.17292 1.6342,0.54762 2.493808,0.694 0.858396,0.27589 1.784435,0.40652 2.540542,0.91852 0.73578,0.68515 1.107718,1.55648 1.51148,2.46852 0.2731,0.89868 0.427929,1.55905 -0.539874,2.0246 2.094381,-1.19946 8.39547,-4.76593 6.283145,-3.59836 -3.111222,1.71969 -6.080842,3.28066 -8.924227,5.28882 -2.532694,1.60124 -0.432114,0.26293 5.583632,-3.18012 0.182708,-0.10457 -0.357664,0.22239 -0.541195,0.32551 -1.43547,0.80652 0.304695,-0.23104 -1.154176,0.65243 -2.425051,1.38419 -4.855892,2.75822 -7.283838,4.13733 -0.142026,0.0917 -0.77393,0.50105 -0.967562,0.62187 -0.122678,0.0766 -0.496776,0.29614 -0.370682,0.22536 14.721961,-8.26414 7.917682,-3.88739 5.716677,-3.33815 -0.919829,0.14664 -1.807723,-0.27713 -2.664755,-0.56666 -0.982858,-0.16536 -1.94593,-0.37155 -2.945724,-0.40167 -0.765504,-0.15436 -1.21255,-0.45277 -1.40141,-1.25602 -0.0854,-1.17386 0.08684,-2.3804 0.549666,-3.46537 1.588237,-2.50614 8.452509,-5.48067 -3.269433,0.99069 1.470586,-0.90338 3.075178,-1.64588 4.722135,-2.16015 0,0 6.356547,-4.61831 6.356547,-4.61831 z" />
    <path
       style="fill:#ffd5d5;stroke:#00ffff;stroke-width:0.284579"
       id="path48-0-8"
       d="m 60.216541,242.53728 c -0.670313,0.27774 4.685748,-2.45235 3.521016,-1.82977 -1.629852,0.87119 -3.409698,1.55008 -4.922766,2.56656 -0.765693,0.5144 1.755989,-0.71283 2.649229,-1.03919 2.347126,-0.85757 2.708751,-0.90654 5.105486,-1.56812 3.074603,-0.7105 6.395724,-1.40596 9.505044,-0.48066 2.810108,1.14123 5.372119,2.65285 8.160994,3.83153 2.344137,0.95385 4.802435,1.65675 7.359879,2.00968 0.309683,0.0299 1.149961,0.12012 1.478497,0.11785 3.160168,-0.0219 6.355151,-0.41498 9.50259,-0.61282 4.20105,-0.26742 8.42415,-0.25551 12.62175,-0.57125 2.19691,-0.16525 3.13286,-0.31628 5.29783,-0.59777 4.82583,-0.82209 9.65717,-1.66091 14.34892,-2.95069 2.63176,-0.82614 5.13887,-1.90972 7.68409,-2.91016 1.43132,-0.6198 2.71859,-0.54431 4.13541,0.0198 2.23758,1.12393 4.88581,1.45184 7.38162,1.9189 4.80788,0.91523 9.64731,1.65944 14.24368,3.21952 1.716,0.62249 3.0978,1.58689 4.24473,2.84327 0.82725,0.90621 1.43542,1.93091 2.26081,2.84095 1.93982,1.37624 3.88001,0.97502 5.96434,-0.0337 2.99349,-1.44872 5.9386,-2.97076 8.90791,-4.45615 1.18609,-0.64285 2.32614,-1.34251 3.50182,-1.99903 0,0 -8.26276,2.78998 -8.26276,2.78998 v 0 c -1.13286,0.65779 -2.25471,1.33088 -3.42323,1.94136 2.05012,-1.00462 4.11164,-1.99206 6.1504,-3.01387 0.43735,-0.21921 -0.88765,0.41978 -1.34532,0.60556 -0.92334,0.37484 -2.0438,0.82888 -3.09484,0.53975 -0.27355,-0.0753 -0.51094,-0.2264 -0.76642,-0.33959 -0.91887,-0.87221 -1.56299,-1.87087 -2.4204,-2.78597 -1.24923,-1.33331 -2.69342,-2.4211 -4.54632,-3.08532 -0.68207,-0.23972 -1.35097,-0.50967 -2.04624,-0.71914 -4.0046,-1.20646 -8.2546,-1.59287 -12.33249,-2.55432 -2.33122,-0.51764 -4.75616,-0.99157 -6.88718,-1.98696 -1.48545,-0.71164 -3.01613,-1.13082 -4.66415,-0.54065 -2.62275,0.98319 -5.13255,2.18533 -7.80151,3.08263 -4.69299,1.41592 -9.53991,2.36677 -14.42305,3.15441 -5.96862,0.85617 -12.00258,1.14726 -18.04452,1.33963 -3.44478,0.12161 -6.90188,0.3421 -10.348409,0.26927 -2.566481,-0.20968 -5.058865,-0.77381 -7.421952,-1.67539 -2.853231,-1.16656 -5.264348,-2.68821 -8.001354,-3.99788 -0.330989,-0.1197 -0.646965,-0.27701 -0.992944,-0.35909 -3.029221,-0.71868 -6.257075,0.0602 -9.202188,0.64943 -2.637325,0.68813 -5.401054,1.38776 -7.847958,2.50989 -4.587768,2.10393 -9.115358,4.33365 -13.562485,6.65811 0,0 8.332441,-2.80053 8.332441,-2.80053 z" />
  </g>
</svg>
