<?xml version="1.0" encoding="UTF-8" standalone="no"?>
<svg
   xmlns:dc="http://purl.org/dc/elements/1.1/"
   xmlns:cc="http://creativecommons.org/ns#"
   xmlns:rdf="http://www.w3.org/1999/02/22-rdf-syntax-ns#"
   xmlns:svg="http://www.w3.org/2000/svg"
   xmlns="http://www.w3.org/2000/svg"
   xmlns:sodipodi="http://sodipodi.sourceforge.net/DTD/sodipodi-0.dtd"
   xmlns:inkscape="http://www.inkscape.org/namespaces/inkscape"
   viewBox="0 0 200 200"
   height="200mm"
   width="200mm"
   version="1.1"
   id="svg27"
   sodipodi:docname="API.svg"
   inkscape:version="1.0.1 (3bc2e813f5, 2020-09-07)">
  <metadata
     id="metadata33">
    <rdf:RDF>
      <cc:Work
         rdf:about="">
        <dc:format>image/svg+xml</dc:format>
        <dc:type
           rdf:resource="http://purl.org/dc/dcmitype/StillImage" />
        <dc:title></dc:title>
      </cc:Work>
    </rdf:RDF>
  </metadata>
  <defs
     id="defs31" />
  <sodipodi:namedview
     pagecolor="#ffffff"
     bordercolor="#666666"
     borderopacity="1"
     objecttolerance="10"
     gridtolerance="10"
     guidetolerance="10"
     inkscape:pageopacity="0"
     inkscape:pageshadow="2"
     inkscape:window-width="1600"
     inkscape:window-height="877"
     id="namedview29"
     showgrid="false"
     inkscape:zoom="0.5"
     inkscape:cx="352.24727"
     inkscape:cy="561.25984"
     inkscape:window-x="-8"
     inkscape:window-y="-8"
     inkscape:window-maximized="1"
     inkscape:current-layer="g25"
     inkscape:document-rotation="0" />
  <g
     id="g25">
    <g
       aria-label="{ soap }"
       transform="scale(0.82618961,1.2103759)"
       id="text37"
       style="font-size:65.7943px;line-height:1.25;font-family:'Arial Rounded MT Bold';-inkscape-font-specification:'Arial Rounded MT Bold, Normal';fill:#800000;stroke-width:0.218596">
      <path
         d="m 12.501125,77.998287 q 2.280954,1.413549 3.565999,3.180486 1.285045,1.734811 1.799063,4.465531 0.514018,2.698594 0.514018,6.939242 0,3.180486 0.128504,4.690414 0.160631,1.509927 0.57827,2.280954 0.449766,0.803156 1.060162,1.028036 0.610397,0.25701 2.088198,0.48189 1.220793,0.16063 2.023946,1.18867 0.803153,1.02803 0.803153,2.69859 0,3.88726 -4.72254,3.88726 -2.923477,0 -5.236558,-1.22079 -2.280954,-1.22079 -3.533873,-3.46962 -1.252919,-2.2167 -1.285045,-5.108054 -0.09638,-4.88317 -0.192756,-7.838773 Q 9.9952872,88.24652 9.8025304,87.379114 9.3206386,85.226664 8.356855,84.134376 7.4251975,83.042088 5.8831436,82.11043 4.373216,81.146647 3.7306935,80.407746 3.0881711,79.636719 3.0881711,77.998287 q 0,-2.377333 1.863315,-3.565999 2.3130808,-1.445676 3.2768644,-2.441586 0.9959098,-1.028036 1.3814232,-2.602216 0.4176393,-1.606306 0.4818923,-3.469621 0.06425,-1.895441 0.192756,-9.059566 0.09638,-4.433405 2.794973,-7.067746 2.73072,-2.666469 7.260503,-2.666469 4.72254,0 4.72254,3.823009 0,1.73481 -0.803153,2.73072 -0.771027,0.99591 -2.023946,1.156541 -1.863315,0.257009 -2.602215,0.771026 -0.738901,0.514018 -0.963784,1.99182 -0.224883,1.477802 -0.289135,5.71845 -0.06425,4.144269 -0.514018,6.810737 -0.41764,2.634342 -1.702685,4.497657 -1.252918,1.863315 -3.662377,3.373243 z"
         style="fill:#800000;stroke-width:0.218596"
         id="path9" />
      <path
         d="m 75.725332,84.359259 q 0,3.630252 -1.766937,6.232467 -1.766937,2.57009 -5.236558,3.919387 -3.437495,1.317171 -8.384917,1.317171 -4.72254,0 -8.095783,-1.445675 -3.373243,-1.445676 -4.979549,-3.598126 -1.606306,-2.184576 -1.606306,-4.369152 0,-1.445676 1.028036,-2.473712 1.028036,-1.028035 2.602216,-1.028035 1.381423,0 2.120324,0.674648 0.738901,0.674649 1.413549,1.895441 1.349297,2.345207 3.212612,3.501747 1.895441,1.156541 5.14018,1.156541 2.634342,0 4.3049,-1.156541 1.702684,-1.188666 1.702684,-2.698594 0,-2.31308 -1.766936,-3.373242 -1.734811,-1.060162 -5.750576,-2.023946 -4.529783,-1.124414 -7.389008,-2.345207 -2.827099,-1.252919 -4.529783,-3.276864 -1.702684,-2.023946 -1.702684,-4.979549 0,-2.634342 1.57418,-4.979549 1.574179,-2.345207 4.626161,-3.72663 3.084108,-1.413549 7.421134,-1.413549 3.405369,0 6.103963,0.706774 2.73072,0.706775 4.529783,1.895442 1.831189,1.188666 2.762847,2.634341 0.963783,1.445676 0.963783,2.827099 0,1.509928 -1.028036,2.473711 -0.995909,0.963784 -2.859225,0.963784 -1.349297,0 -2.31308,-0.771027 -0.931658,-0.771027 -2.15245,-2.313081 -0.99591,-1.285044 -2.345207,-2.056071 -1.349297,-0.771027 -3.662378,-0.771027 -2.377333,0 -3.951513,1.028036 -1.57418,0.995909 -1.57418,2.505837 0,1.381423 1.15654,2.280955 1.156541,0.867405 3.116234,1.445675 1.959694,0.57827 5.397189,1.41355 4.080017,0.995909 6.650107,2.377332 2.602216,1.381424 3.919386,3.276865 1.349298,1.863315 1.349298,4.272774 z"
         style="fill:#800000;stroke-width:0.218596"
         id="path11" />
      <path
         d="m 115.97936,77.998287 q 0,3.919387 -1.22079,7.228377 -1.2208,3.308991 -3.53388,5.686324 -2.31308,2.377333 -5.52569,3.662378 -3.21261,1.252918 -7.228377,1.252918 -3.983639,0 -7.164125,-1.285045 -3.180486,-1.285044 -5.525693,-3.662377 -2.313081,-2.40946 -3.533873,-5.654198 -1.188667,-3.276864 -1.188667,-7.228377 0,-3.983639 1.220793,-7.29263 1.220793,-3.30899 3.501747,-5.654197 2.280955,-2.345207 5.525693,-3.598125 3.244738,-1.285045 7.164125,-1.285045 3.983637,0 7.228377,1.285045 3.24474,1.285044 5.55782,3.662377 2.31308,2.377333 3.50175,5.654198 1.22079,3.276864 1.22079,7.228377 z m -8.80256,0 q 0,-5.365062 -2.37733,-8.352792 -2.34521,-2.987729 -6.328847,-2.987729 -2.57009,0 -4.529783,1.349297 -1.959693,1.317171 -3.019855,3.919387 -1.060162,2.602216 -1.060162,6.071837 0,3.437495 1.028035,6.007585 1.060162,2.570089 2.98773,3.951513 1.959693,1.349297 4.594035,1.349297 3.983637,0 6.328847,-2.98773 2.37733,-3.019855 2.37733,-8.320665 z"
         style="fill:#800000;stroke-width:0.218596"
         id="path13" />
      <path
         d="m 145.05351,90.880862 q -3.18049,2.473711 -6.16822,3.72663 -2.9556,1.220792 -6.6501,1.220792 -3.37325,0 -5.94334,-1.317171 -2.53796,-1.349297 -3.91938,-3.630251 -1.38143,-2.280955 -1.38143,-4.947423 0,-3.598126 2.28096,-6.136089 2.28095,-2.537964 6.26459,-3.405369 0.83528,-0.192757 4.14427,-0.867405 3.30899,-0.674649 5.6542,-1.220793 2.37733,-0.57827 5.14018,-1.381423 -0.16063,-3.469621 -1.41355,-5.075927 Q 141.8409,66.208 137.95363,66.208 q -3.34111,0 -5.0438,0.931658 -1.67055,0.931658 -2.89135,2.794973 -1.18866,1.863315 -1.70268,2.473711 -0.48189,0.57827 -2.12033,0.57827 -1.4778,0 -2.57009,-0.931657 -1.06016,-0.963784 -1.06016,-2.441586 0,-2.31308 1.63843,-4.497657 1.63844,-2.184576 5.10806,-3.598125 3.46962,-1.41355 8.64192,-1.41355 5.78271,0 9.0917,1.381424 3.30899,1.349297 4.65828,4.3049 1.38143,2.955603 1.38143,7.838773 0,3.084108 -0.0321,5.236558 0,2.15245 -0.0321,4.786792 0,2.473712 0.80315,5.172306 0.83528,2.666468 0.83528,3.437495 0,1.349297 -1.28505,2.473711 -1.25292,1.092288 -2.85922,1.092288 -1.3493,0 -2.66647,-1.252918 -1.31717,-1.285045 -2.79497,-3.694504 z m -0.57827,-12.689818 q -1.92757,0.706774 -5.62207,1.509927 -3.66238,0.771027 -5.07593,1.156541 -1.41355,0.353387 -2.6986,1.445675 -1.28504,1.060162 -1.28504,2.987729 0,1.99182 1.50993,3.405369 1.50993,1.381424 3.95151,1.381424 2.60222,0 4.78679,-1.124415 2.21671,-1.15654 3.24474,-2.955603 1.18867,-1.991819 1.18867,-6.553729 z"
         style="fill:#800000;stroke-width:0.218596"
         id="path15" />
      <path
         d="m 169.21235,65.083586 v 1.060162 q 2.47372,-3.051981 5.14018,-4.465531 2.66647,-1.445675 6.03971,-1.445675 4.0479,0 7.45326,2.088198 3.40537,2.088198 5.36507,6.103963 1.99182,4.015765 1.99182,9.509332 0,4.047891 -1.15654,7.45326 -1.12442,3.373243 -3.11624,5.686323 -1.99182,2.280955 -4.72254,3.533874 -2.69859,1.220792 -5.81483,1.220792 -3.75875,0 -6.32884,-1.509927 -2.53797,-1.509928 -4.85105,-4.433405 v 13.171708 q 0,5.7827 -4.20852,5.7827 -2.47371,0 -3.27686,-1.50992 -0.80316,-1.47781 -0.80316,-4.33703 V 65.147838 q 0,-2.505837 1.09229,-3.72663 1.09229,-1.252918 2.98773,-1.252918 1.86332,0 3.01986,1.285045 1.18866,1.252918 1.18866,3.630251 z m 17.18748,12.75407 q 0,-3.469621 -1.06016,-5.943332 -1.06017,-2.505838 -2.95561,-3.823008 -1.86331,-1.349298 -4.14427,-1.349298 -3.63025,0 -6.13609,2.859225 -2.47371,2.859225 -2.47371,8.417044 0,5.236558 2.47371,8.160035 2.47372,2.891351 6.13609,2.891351 2.18458,0 4.0479,-1.252919 1.86331,-1.285045 2.98772,-3.823008 1.12442,-2.537964 1.12442,-6.13609 z"
         style="fill:#800000;stroke-width:0.218596"
         id="path17" />
      <path
         d="m 228.16378,77.998287 q -1.73481,-1.092288 -2.82709,-2.280955 -1.09229,-1.188666 -1.79907,-2.891351 -0.70677,-1.702684 -0.99591,-4.015765 -0.28913,-2.345207 -0.28913,-5.493566 0,-3.051982 -0.12851,-4.658288 -0.1285,-1.638432 -0.51401,-2.377333 -0.38552,-0.738901 -1.09229,-0.99591 -0.67465,-0.289135 -2.0882,-0.449765 -1.18867,-0.160631 -2.02395,-1.156541 -0.80315,-0.99591 -0.80315,-2.73072 0,-3.823009 4.65829,-3.823009 2.98773,0 5.23656,1.220793 2.28095,1.188667 3.566,3.437495 1.31717,2.216702 1.34929,5.075927 0.19276,10.665872 0.44977,11.726034 0.51402,2.120324 1.50993,3.244739 0.99591,1.092288 2.40946,1.959693 1.41354,0.835279 2.08819,1.670558 0.70678,0.83528 0.70678,2.537964 0,2.409459 -1.83119,3.533873 -2.24883,1.381424 -3.27687,2.441586 -0.99591,1.028035 -1.41354,2.602215 -0.38552,1.542054 -0.4819,4.658288 -0.0642,3.116234 -0.16063,7.806647 -0.0964,4.433404 -2.85922,7.099874 -2.73072,2.69859 -7.29263,2.69859 -2.24883,0 -3.46962,-0.99591 -1.18867,-0.99591 -1.18867,-2.89135 0,-1.06016 0.38551,-1.95969 0.38552,-0.86741 0.99591,-1.3493 0.64253,-0.48189 1.44568,-0.57827 1.44568,-0.19275 2.15245,-0.48189 0.70677,-0.28913 1.06016,-1.092288 0.38552,-0.803153 0.48189,-2.377333 0.12851,-1.542054 0.12851,-4.529783 0.0643,-4.433405 0.51402,-6.939242 0.44976,-2.505838 1.70268,-4.3049 1.25292,-1.799063 3.6945,-3.341117 z"
         style="fill:#800000;stroke-width:0.218596"
         id="path19" />
    </g>
  </g>
</svg>
