<?xml version="1.0" encoding="UTF-8" standalone="no"?>
<svg
   xmlns:dc="http://purl.org/dc/elements/1.1/"
   xmlns:cc="http://creativecommons.org/ns#"
   xmlns:rdf="http://www.w3.org/1999/02/22-rdf-syntax-ns#"
   xmlns:svg="http://www.w3.org/2000/svg"
   xmlns="http://www.w3.org/2000/svg"
   xmlns:sodipodi="http://sodipodi.sourceforge.net/DTD/sodipodi-0.dtd"
   xmlns:inkscape="http://www.inkscape.org/namespaces/inkscape"
   width="200mm"
   height="200mm"
   viewBox="0 0 200 200"
   version="1.1"
   id="svg8"
   sodipodi:docname="Product.svg"
   inkscape:version="1.0.1 (3bc2e813f5, 2020-09-07)">
  <defs
     id="defs2">
    <rect
       x="85.195831"
       y="108.47917"
       width="75.67083"
       height="100.54167"
       id="rect40" />
    <rect
       x="39.309525"
       y="97.51786"
       width="100.54167"
       height="89.958336"
       id="rect16" />
  </defs>
  <sodipodi:namedview
     id="base"
     pagecolor="#ffffff"
     bordercolor="#666666"
     borderopacity="1.0"
     inkscape:pageopacity="0.0"
     inkscape:pageshadow="2"
     inkscape:zoom="0.5"
     inkscape:cx="800.91343"
     inkscape:cy="534.87291"
     inkscape:document-units="mm"
     inkscape:current-layer="layer1"
     inkscape:document-rotation="0"
     showgrid="false"
     inkscape:window-width="1600"
     inkscape:window-height="877"
     inkscape:window-x="-8"
     inkscape:window-y="-8"
     inkscape:window-maximized="1" />
  <metadata
     id="metadata5">
    <rdf:RDF>
      <cc:Work
         rdf:about="">
        <dc:format>image/svg+xml</dc:format>
        <dc:type
           rdf:resource="http://purl.org/dc/dcmitype/StillImage" />
        <dc:title></dc:title>
      </cc:Work>
    </rdf:RDF>
  </metadata>
  <g
     inkscape:label="Layer 1"
     inkscape:groupmode="layer"
     id="layer1">
    <path
       d="m 46.690172,24.611669 c 2.251647,0 4.854514,-0.56259 7.809889,-1.688421 v 7.246655 c -0.656894,0.234465 -1.59476,0.492669 -2.814244,0.774286 0.374958,1.078671 0.562916,2.087103 0.562916,3.025296 0,3.001876 -0.902587,5.616934 -2.708719,7.844842 -1.805812,2.227916 -4.139573,3.553571 -7.000962,3.975355 -1.875732,0.281618 -2.813918,1.290042 -2.813918,3.025608 0,0.609742 0.304712,1.219802 0.914772,1.829225 0.797381,0.891359 1.970031,1.454594 3.517958,1.689059 6.707798,1.031845 10.061218,3.822666 10.061218,8.372476 0,7.271033 -4.338432,10.906063 -13.01626,10.906063 -3.564791,0 -6.496754,-0.63315 -8.794589,-1.899791 -2.9095,-1.595072 -4.363129,-4.104605 -4.363129,-7.52923 0,-3.939741 2.181089,-6.636591 6.542934,-8.090859 v -0.140485 c -1.59476,-0.985019 -2.391814,-2.48612 -2.391814,-4.503303 0,-2.626599 0.750547,-4.268831 2.251648,-4.924761 v -0.140805 c -1.501101,-0.515763 -2.838296,-1.689058 -4.010627,-3.518284 -1.313463,-1.97003 -1.970357,-4.080873 -1.970357,-6.332202 0,-3.377152 1.19607,-6.191389 3.588523,-8.442717 2.298482,-2.110843 5.042479,-3.166101 8.231993,-3.166101 2.298482,-3.57e-4 4.432411,0.562589 6.402768,1.688094 z m 0.281298,37.008834 c 0,-2.39246 -1.970038,-3.588523 -5.910425,-3.588523 -3.799256,0 -5.699039,1.242897 -5.699039,3.729328 0,2.438648 2.064328,3.658132 6.191708,3.658132 3.611944,4.41e-4 5.417756,-1.265991 5.417756,-3.798937 z M 36.136284,34.602959 c 0,3.236667 1.477369,4.854841 4.432092,4.854841 2.861397,0 4.291932,-1.641914 4.291932,-4.925088 0,-1.360288 -0.328124,-2.532619 -0.9847,-3.517957 -0.79738,-1.078679 -1.899791,-1.618493 -3.307232,-1.618493 -2.954404,-4.4e-4 -4.432092,1.735566 -4.432092,5.206697 z M 61.960328,17.786796 c -1.359969,0 -2.520753,-0.515441 -3.482359,-1.547608 -0.961599,-1.032166 -1.442401,-2.251328 -1.442401,-3.658448 0,-1.454271 0.480802,-2.6968467 1.442401,-3.7290127 0.961606,-1.032167 2.12239,-1.54825 3.482359,-1.54825 1.313462,0 2.451152,0.515762 3.412758,1.547929 0.961599,1.032166 1.442082,2.2747427 1.442082,3.7290127 0,1.407441 -0.480483,2.626282 -1.442082,3.658449 -0.961606,1.032166 -2.099296,1.547928 -3.412758,1.547928 z m -4.010307,36.727541 c 0.09398,-0.937867 0.140486,-2.53262 0.140486,-4.784275 V 27.848009 c 0,-2.204176 -0.0468,-3.72869 -0.140486,-4.573216 h 7.950694 c -0.09398,0.891359 -0.140805,2.36904 -0.140805,4.43273 V 49.30764 c 0,2.39246 0.0468,4.127706 0.140805,5.206378 H 57.950021 Z M 80.459455,23.274793 h 6.121152 v 6.824544 c -0.234467,0 -0.66844,-0.02309 -1.301917,-0.07027 a 24.388376,24.388376 0 0 0 -1.794261,-0.07057 h -3.025294 v 13.086834 c 0,3.143006 1.031845,4.714028 3.095536,4.714028 1.454271,0 2.767412,-0.398364 3.940384,-1.196071 v 7.035922 c -1.735565,0.938512 -3.822989,1.407442 -6.262276,1.407442 -3.423983,0 -5.792385,-1.219484 -7.105844,-3.658125 -0.9847,-1.829863 -1.477369,-4.714028 -1.477369,-8.654415 V 30.099633 h 0.07057 V 29.95914 l -1.055577,-0.07027 c -0.609742,0 -1.407122,0.07027 -2.392141,0.210733 v -6.824871 h 3.447718 v -2.743678 c 0,-1.313463 -0.07057,-2.36904 -0.211051,-3.166098 h 8.161427 c -0.140486,0.891037 -0.211052,1.899788 -0.211052,3.025293 z m 24.713935,-0.211052 c -2.01686,0 -4.1277,0.703721 -6.332204,2.110517 V 12.861714 c 0,-2.673431 0.0468,-4.4324117 0.140486,-5.2766197 h -8.020936 c 0.140808,0.750549 0.211054,2.5092087 0.211054,5.2766197 v 37.219893 c 0,2.15735 -0.07025,3.635349 -0.211054,4.432411 h 8.161421 c 0,-0.140813 -0.0468,-0.714949 -0.140485,-1.7237 -0.09366,-1.008751 -0.140486,-1.911657 -0.140486,-2.708711 V 32.773096 c 1.641584,-1.547608 3.236344,-2.321257 4.784274,-2.321257 1.78271,0 3.14301,0.890721 4.08119,2.673113 0.70308,1.407441 1.05527,3.166428 1.05527,5.277263 l -0.0706,9.497983 c 0,1.595399 -0.11708,3.799902 -0.35154,6.61382 h 8.51296 c -0.18731,-1.172331 -0.28129,-3.330327 -0.28129,-6.473334 v -9.638469 c 0,-4.081192 -0.91478,-7.552005 -2.744,-10.413394 -2.06401,-3.283493 -4.94881,-4.92508 -8.6541,-4.92508 z m 24.90927,31.732213 c -3.70592,0 -6.44927,-1.641906 -8.23199,-4.925399 -1.40712,-2.673431 -2.11084,-6.167983 -2.11084,-10.483321 v -9.639115 c 0,-3.189514 -0.0937,-5.347502 -0.2813,-6.473326 h 8.44305 c -0.14081,1.032164 -0.23446,3.236667 -0.28162,6.613819 l -0.0703,9.498303 c 0,2.673432 0.30471,4.596955 0.91446,5.768967 0.70404,1.454594 1.99376,2.181727 3.86981,2.181727 1.31347,0 2.79115,-0.774286 4.43274,-2.321575 V 27.707842 c 0,-0.797373 -0.0472,-1.712472 -0.14081,-2.744317 -0.0943,-1.032164 -0.14049,-1.594753 -0.14049,-1.688732 h 8.16111 c -0.0933,0.79738 -0.14049,2.275061 -0.14049,4.43273 v 21.52987 c 0,2.767092 0.0472,4.526078 0.14049,5.276625 h -7.66873 v -2.532627 c -2.158,1.876059 -4.45615,2.814563 -6.89512,2.814563 z m 31.66422,-0.07088 c -2.53262,0 -4.64347,-0.914453 -6.33221,-2.743352 v 2.532619 h -7.45801 c 0.1408,-0.797054 0.21136,-2.27538 0.21136,-4.43241 v -37.22022 c 0,-2.767411 -0.0706,-4.5260707 -0.21136,-5.2766197 h 8.02093 c -0.094,0.844208 -0.14049,2.6031887 -0.14049,5.2766197 v 12.242624 c 2.15735,-1.360297 4.26884,-2.040597 6.33221,-2.040597 3.70559,0 6.61413,1.641587 8.72466,4.92508 1.78239,2.861389 2.67343,6.332202 2.67343,10.413394 0,4.174533 -0.93819,7.809571 -2.81393,10.905425 -2.25229,3.611943 -5.25416,5.417429 -9.00659,5.417429 z m -1.05558,-24.27323 c -1.54825,0 -3.1661,0.773648 -4.85484,2.321256 v 12.172054 c 1.5011,1.453948 2.97847,2.181727 4.43241,2.181727 1.82891,0 3.21325,-1.008751 4.15112,-3.025934 0.75087,-1.59476 1.12583,-3.494871 1.12583,-5.699047 6.6e-4,-5.300037 -1.61785,-7.950056 -4.85452,-7.950056 z M 63.431597,61.258373 c -0.446474,-0.60589 -1.020617,-0.988544 -1.801315,-0.988544 -0.74959,0 -1.466779,0.574136 -1.466779,1.35548 0,2.02456 4.766627,1.179388 4.766627,5.213116 0,2.407532 -1.498533,4.112948 -3.953537,4.112948 -1.658262,0 -2.869731,-0.956153 -3.698858,-2.343698 l 1.514889,-1.482824 c 0.3185,0.925036 1.163678,1.753851 2.168259,1.753851 0.956144,0 1.546324,-0.812771 1.546324,-1.737814 0,-1.243535 -1.147961,-1.594115 -2.088394,-1.960405 -1.546644,-0.637652 -2.678879,-1.418996 -2.678879,-3.284139 0,-1.992805 1.482816,-3.602964 3.507694,-3.602964 1.068089,0 2.550586,0.526353 3.284139,1.339124 z m 8.09728,9.693 c -3.66743,0 -5.946988,-2.805905 -5.946988,-6.345353 0,-3.570884 2.359741,-6.312959 5.946988,-6.312959 3.586922,0 5.946341,2.742075 5.946341,6.312959 0,3.539448 -2.279554,6.345353 -5.946341,6.345353 z m 0,-10.346362 c -2.216049,0 -3.523738,1.960413 -3.523738,3.905746 0,1.849114 0.925035,4.128983 3.523738,4.128983 2.598377,0 3.522774,-2.279869 3.522774,-4.128983 0,-1.945333 -1.307051,-3.905746 -3.522774,-3.905746 z m 15.127105,1.195425 c -0.653685,-0.797054 -1.642229,-1.275608 -2.646812,-1.275608 -2.247799,0 -3.53913,2.07235 -3.53913,4.145658 0,2.024567 1.339443,4.048807 3.523413,4.048807 1.004262,0 2.008844,-0.526353 2.662529,-1.274977 v 2.789228 c -0.876925,0.415046 -1.753849,0.717509 -2.726677,0.717509 -3.379398,0 -5.882514,-2.917522 -5.882514,-6.233415 0,-3.412112 2.407213,-6.424896 5.930626,-6.424896 0.940433,0 1.864827,0.255317 2.678565,0.701472 z m 3.888422,8.83211 H 88.201023 V 58.61189 h 2.343381 z m 4.160101,-2.534868 -0.988542,2.534549 h -2.471047 l 4.68741,-12.339485 h 1.817358 l 4.559756,12.339485 h -2.503442 l -0.924717,-2.534546 z m 2.024562,-6.281841 h -0.03175 l -1.323409,4.36891 h 2.853688 z m 8.639013,6.776123 h 3.31621 v 2.040589 H 103.0247 V 58.61189 h 2.34338 z m 16.7052,-6.791521 c -0.65337,-0.797054 -1.64191,-1.275608 -2.6465,-1.275608 -2.24781,0 -3.53913,2.07235 -3.53913,4.145658 0,2.024567 1.33912,4.048807 3.52309,4.048807 1.00458,0 2.00917,-0.526353 2.66254,-1.274977 v 2.789228 c -0.87661,0.415046 -1.75386,0.717506 -2.72605,0.717506 -3.37972,0 -5.88283,-2.917519 -5.88283,-6.233412 0,-3.412112 2.40721,-6.424896 5.93062,-6.424896 0.94044,0 1.86516,0.255317 2.67826,0.701472 z m 6.9182,9.150934 c -3.66711,0 -5.94666,-2.805902 -5.94666,-6.34535 0,-3.570884 2.35942,-6.312959 5.94666,-6.312959 3.58724,0 5.94634,2.742075 5.94634,6.312959 0,3.539448 -2.27988,6.34535 -5.94634,6.34535 z m 0,-10.346359 c -2.21637,0 -3.52341,1.960413 -3.52341,3.905746 0,1.849114 0.92503,4.128983 3.52341,4.128983 2.59838,0 3.52341,-2.279869 3.52341,-4.128983 6.6e-4,-1.945333 -1.30737,-3.905746 -3.52341,-3.905746 z m 7.09205,-1.993124 h 3.34829 c 3.47497,0 5.80265,2.598695 5.80265,6.025887 0,3.380359 -2.39118,5.994453 -5.81933,5.994453 h -3.33193 V 58.61189 Z m 2.34371,9.98007 h 0.38232 c 2.88513,0 4.00198,-1.594442 4.00198,-3.970219 0,-2.614094 -1.33913,-3.969255 -4.00198,-3.969255 h -0.38232 z m 10.29696,2.040589 h -2.34403 V 58.61189 h 2.34403 z m 1.70445,-12.339485 h 1.69035 l 6.32899,8.401673 h 0.0318 V 58.61189 h 2.34402 v 12.25994 h -1.69034 l -6.32868,-8.401985 h -0.0321 v 8.162704 h -2.34402 z m 22.71696,5.946669 v 0.302782 c 0,3.395437 -1.73814,6.408538 -5.4681,6.408538 -3.5077,0 -5.72407,-2.964991 -5.72407,-6.280883 0,-3.42815 2.27988,-6.377425 5.86712,-6.377425 2.0406,0 3.8262,1.036334 4.75091,2.869411 l -2.07267,1.11588 c -0.47823,-1.083806 -1.49853,-1.912941 -2.74207,-1.912941 -2.26416,0 -3.37972,2.311631 -3.37972,4.304756 0,1.992167 1.1316,4.208216 3.39543,4.208216 1.46678,0 2.69461,-1.275296 2.7424,-2.726366 h -2.55091 v -1.912614 h 5.18168 z"
       id="path2"
       style="stroke-width:0.320747" />
    <path
       d="m 48.226142,138.6997 c 0,-15.09144 5.338955,-27.97611 16.016973,-38.65403 10.677797,-10.677897 23.562474,-16.016847 38.654025,-16.016847 15.09133,0 27.976,5.33895 38.65402,16.016847 10.67781,10.67792 16.01687,23.56259 16.01687,38.65403 0,15.09144 -5.33896,27.97611 -16.01687,38.65402 -10.6779,10.67792 -23.56257,16.01698 -38.65402,16.01698 -15.091551,0 -27.976228,-5.33896 -38.654025,-16.01698 C 53.565097,166.67593 48.226142,153.79104 48.226142,138.6997 Z m 5.979631,0 c 0,13.38309 4.769468,24.84393 14.308398,34.38298 9.538922,9.53881 20.999879,14.30839 34.382969,14.30839 13.38298,0 24.84394,-4.76947 34.38287,-14.30839 9.53893,-9.53893 14.3084,-20.99989 14.3084,-34.38298 0,-13.38298 -4.76937,-24.84393 -14.3084,-34.38285 -9.53893,-9.538937 -21.00001,-14.308397 -34.38287,-14.308397 -13.38309,0 -24.843933,4.76946 -34.382969,14.308397 -9.53893,9.53892 -14.308398,20.99987 -14.308398,34.38285 z m 15.376297,11.7457 c -0.284747,-0.28474 -0.284747,-0.56949 0,-0.85423 0.569381,-0.5695 1.281344,-0.78305 2.135471,-0.64068 0.854235,0.14237 1.352533,0.28474 1.49491,0.42712 0.996596,0.42712 2.10004,1.38807 3.310097,2.88309 1.210048,1.49491 2.171115,2.52705 2.883085,3.09653 3.416929,2.84745 6.90494,3.061 10.464239,0.64069 0.284747,-0.99661 0.747508,-1.85084 1.388069,-2.56281 0.64057,-0.71187 1.245814,-1.21006 1.815309,-1.49491 0.569593,-0.28474 1.566197,-0.71186 2.989918,-1.28135 -4.698386,-0.42712 -8.506789,-1.24581 -11.425412,-2.45598 -2.91863,-1.21015 -5.232237,-2.7406 -6.940697,-4.59144 -2.277955,-2.5627 -3.666139,-5.90844 -4.164437,-10.03723 -0.498412,-4.1288 -0.178021,-7.90165 0.961066,-11.31858 0.854234,-2.13559 2.064397,-4.0575 3.630374,-5.76608 -1.138974,-3.55929 -0.925415,-7.6169 0.640675,-12.17281 4.55591,0.28475 8.684704,1.85084 12.38638,4.69828 7.118597,-1.85084 14.521953,-1.92202 22.209933,-0.21356 0.99661,-0.71185 2.52716,-1.60163 4.59144,-2.66953 2.0644,-1.06779 4.66275,-1.67293 7.79494,-1.8153 0.56949,1.5661 0.96106,3.41693 1.17462,5.55251 0.21356,2.13559 0.10684,4.12879 -0.32028,5.97963 3.27444,3.41693 4.98291,7.97284 5.12529,13.66773 0,4.5559 -0.78295,8.32876 -2.34903,11.31857 -1.5661,2.98982 -4.34235,5.48133 -8.32878,7.47443 -2.70506,1.28146 -6.26437,2.0644 -10.6779,2.34914 1.99332,0.99661 3.45258,2.02886 4.37799,3.09665 0.92553,1.06779 1.53056,2.74061 1.81541,5.01856 v 6.72724 l 0.21345,6.51348 c 0.42712,0.71197 0.92553,1.31699 1.49502,1.8154 0.56949,0.49831 1.06778,0.85424 1.4949,1.0678 0.42701,0.21355 0.56949,0.53394 0.42701,0.96106 -0.14237,0.42712 -0.71186,0.64068 -1.70835,0.64068 -2.42044,0 -4.34235,-0.85424 -5.76608,-2.56281 -0.42711,-0.71187 -0.64067,-1.56599 -0.64067,-2.5627 v -10.2508 c 0,-1.13897 -0.28474,-1.95766 -0.85424,-2.45597 -0.56948,-0.49841 -1.13897,-0.81869 -1.70846,-0.96106 v 13.45416 c 0,2.42033 0.28474,3.98642 0.85424,4.69828 0.56948,0.71186 0.92541,1.42383 1.06789,2.13558 0.14238,0.14237 0.0356,0.2491 -0.32038,0.32028 -0.35583,0.0711 -0.96096,-0.0356 -1.8153,-0.32028 -1.85084,-0.42712 -3.13219,-1.38818 -3.84405,-2.88309 -0.71186,-1.49491 -1.06779,-3.09665 -1.06779,-4.80511 V 157.0657 h -2.77626 v 13.24061 c 0,1.70846 -0.35604,3.34585 -1.0679,4.91184 -0.996492,1.99332 -2.847439,3.061 -5.552405,3.20337 -0.427117,-0.14237 -0.640675,-0.28475 -0.640675,-0.42701 0.142369,-0.14248 0.569494,-0.85423 1.281351,-2.13558 0.142377,-0.28474 0.320391,-0.85424 0.533957,-1.70846 0.213665,-0.85424 0.320383,-1.85085 0.320383,-2.98982 v -13.45427 c -0.569487,0.14237 -1.103436,0.46265 -1.601734,0.96106 -0.498306,0.49842 -0.747508,1.317 -0.747508,2.45597 v 10.2508 c 0,0.99649 -0.213566,1.85083 -0.640683,2.5627 -1.281344,1.70846 -3.203371,2.5628 -5.765959,2.5628 -0.996604,0 -1.566091,-0.21355 -1.708461,-0.64067 -0.142484,-0.28474 -0.106832,-0.53395 0.106833,-0.74751 0.213665,-0.21355 0.533949,-0.46276 0.961066,-0.7475 0.427117,-0.28475 0.711865,-0.49842 0.854234,-0.64068 0.569487,-0.42712 0.99649,-0.9966 1.281344,-1.70847 0.427117,-0.56948 0.533843,-2.06439 0.320285,-4.48472 -0.213559,-2.42032 -0.249203,-3.98641 -0.106833,-4.69828 -3.701782,1.28134 -7.474533,0.64057 -11.318693,-1.92203 -1.138974,-1.13897 -2.277955,-2.77636 -3.416929,-4.91183 -0.854234,-1.5662 -2.562702,-3.41704 -5.125283,-5.55262 z"
       id="path2-5"
       style="stroke-width:0.109349" />
  </g>
</svg>
